<svg width="188" height="188" viewBox="0 0 188 188" fill="none" xmlns="http://www.w3.org/2000/svg">
<path fill-rule="evenodd" clip-rule="evenodd" d="M81.8258 0.697196L76.2679 1.37242L76.3194 1.96716C76.4802 3.82353 78.2577 18.4669 78.3309 18.5403C78.4367 18.646 90.1157 17.306 90.2712 17.1703C90.3985 17.059 90.0902 14.0235 89.9339 13.8491C89.8757 13.784 88.0641 13.9412 85.9084 14.1983C83.7527 14.4553 81.9433 14.6191 81.8874 14.562C81.7852 14.4573 81.3752 11.0898 81.4555 11.0141C81.479 10.9917 82.9969 10.8013 84.8281 10.5911L88.1577 10.2089L88.0471 8.8463C87.9173 7.24396 87.8474 7.01513 87.4886 7.01725C87.3408 7.01807 86.043 7.16463 84.6044 7.34276C83.1659 7.52089 81.764 7.66745 81.4888 7.66827L80.9889 7.6699L80.8132 6.07508C80.7168 5.19785 80.6525 4.46293 80.6708 4.44167C80.689 4.42024 82.3171 4.21577 84.2889 3.98694C86.2606 3.7581 88.0264 3.5381 88.2126 3.49819C88.533 3.42932 88.5441 3.36079 88.4184 2.23542C88.1799 0.10278 88.1428 -0.0200633 87.7439 0.00201883C87.5456 0.0129781 84.8825 0.325726 81.8258 0.697196ZM104.896 2.71239C104.458 3.86475 104.047 4.86466 103.984 4.9345C103.921 5.00435 103.11 4.94759 102.182 4.80806C101.255 4.6687 100.477 4.57465 100.455 4.59918C100.376 4.6849 100.094 7.09822 100.151 7.19865C100.183 7.25427 100.733 7.35143 101.373 7.41457C102.014 7.47771 102.63 7.56489 102.743 7.60824C103.048 7.72535 102.045 10.2908 101.699 10.2762C101.558 10.2704 100.794 10.1737 100.002 10.0613C99.2107 9.9491 98.5387 9.89872 98.509 9.94943C98.4792 10.0001 98.4045 10.5201 98.3429 11.1049C98.2813 11.6897 98.1959 12.2919 98.1533 12.4432C98.091 12.6644 98.2294 12.7388 98.8598 12.8229C99.291 12.8805 99.9124 12.9775 100.241 13.0385L100.837 13.1495L100.029 15.1736C99.5849 16.2868 99.2502 17.2265 99.2853 17.2619C99.3934 17.3698 102.182 17.698 102.267 17.6127C102.311 17.5687 102.701 16.657 103.135 15.5866L103.922 13.6402L104.971 13.6962C105.547 13.7269 106.047 13.7794 106.081 13.8128C106.115 13.8462 105.772 14.7964 105.318 15.9243C104.373 18.2719 104.259 18.0109 106.346 18.2817C106.975 18.3635 107.536 18.383 107.592 18.3252C107.648 18.2675 108.044 17.3149 108.473 16.2083C109.224 14.2672 109.266 14.1995 109.679 14.2826C110.461 14.4401 112.987 14.7378 113.045 14.6792C113.162 14.5608 113.457 12.0317 113.364 11.9383C113.311 11.8848 112.644 11.7572 111.882 11.6548C111.12 11.5524 110.466 11.4381 110.429 11.4006C110.354 11.3262 111.212 9.0439 111.376 8.87967C111.465 8.79102 113.742 9.03081 114.705 9.23021C115.021 9.29547 115.065 9.21205 115.161 8.36344C115.22 7.84705 115.305 7.23595 115.35 7.00531C115.43 6.59213 115.411 6.58346 114.013 6.39617C113.232 6.29165 112.559 6.17208 112.518 6.13021C112.476 6.08834 112.809 5.11116 113.258 3.95864C113.707 2.80612 114.053 1.83958 114.027 1.81079C114.001 1.78216 113.316 1.66783 112.506 1.55693L111.033 1.35541L110.169 3.54677L109.305 5.73813L108.234 5.62461C107.645 5.56229 107.142 5.49081 107.116 5.46578C107.089 5.44092 107.439 4.49008 107.892 3.35277C108.346 2.21563 108.716 1.22242 108.716 1.14555C108.716 1.06867 108.257 0.956458 107.695 0.896263C107.133 0.836069 106.452 0.74872 106.183 0.702103L105.692 0.617537L104.896 2.71239ZM66.9087 3.6014C65.987 3.96289 65.2331 4.32569 65.2331 4.40764C65.2331 4.48959 66.0073 6.55811 66.9536 9.00448C67.9 11.4507 68.6539 13.5102 68.6292 13.5809C68.6045 13.6517 66.1211 12.2474 63.1106 10.4603L57.6368 7.21092L56.6535 7.58403C56.1125 7.78915 55.4433 8.05806 55.1662 8.18155L54.6624 8.40597L57.7625 16.421C59.4675 20.8292 60.8841 24.4611 60.9106 24.4919C60.9966 24.5923 64.5792 23.1629 64.5792 23.0282C64.5792 22.9561 63.8053 20.8956 62.8595 18.4492C61.9135 16.0029 61.1596 13.9836 61.1839 13.962C61.2081 13.9404 63.6757 15.3489 66.6672 17.0919L72.1066 20.2609L73.5871 19.668C74.8092 19.1786 75.054 19.0224 74.9891 18.7738C74.7215 17.7496 68.881 2.9288 68.7477 2.93567C68.6578 2.94041 67.8303 3.23991 66.9087 3.6014ZM122.135 4.43937C122.057 4.64188 120.623 8.25909 118.948 12.4779C117.273 16.6967 115.922 20.1626 115.946 20.1798C116.062 20.2613 119.437 21.5747 119.529 21.5741C119.587 21.5738 120.091 20.4325 120.65 19.0381C121.209 17.6436 121.719 16.5027 121.784 16.5027C121.959 16.5027 123.983 17.332 124.114 17.4577C124.177 17.5172 124.448 18.9561 124.717 20.6553C124.986 22.3543 125.266 23.8019 125.339 23.8719C125.516 24.0409 129.193 25.5109 129.263 25.4406C129.308 25.3954 128.537 20.1262 128.262 18.6014C128.189 18.1973 128.248 18.1443 129.051 17.8915C130.807 17.3389 132.314 15.7609 132.851 13.9144C133.571 11.4358 132.303 8.31176 130.116 7.17641C129.576 6.89605 122.509 4.07134 122.347 4.07134C122.308 4.07134 122.213 4.23687 122.135 4.43937ZM108.177 8.38405C108.208 8.41513 108.024 8.98485 107.768 9.65009L107.304 10.8595L106.278 10.8299C105.713 10.8137 105.215 10.7635 105.17 10.7182C105.077 10.6258 105.354 9.72255 105.782 8.71708L106.068 8.04677L107.094 8.18711C107.659 8.26432 108.146 8.35297 108.177 8.38405ZM126.639 9.54704C127.616 9.94975 128.537 10.4285 128.687 10.6107C129.544 11.6563 128.949 13.7214 127.604 14.3732L126.887 14.7203L124.933 13.96L122.978 13.1999L123.712 11.3754C124.116 10.3719 124.51 9.38544 124.588 9.18293C124.665 8.98043 124.759 8.8149 124.796 8.8149C124.833 8.8149 125.663 9.14433 126.639 9.54704ZM47.8643 12.0166C46.9876 12.5162 46.2704 12.9855 46.2704 13.0594C46.2704 13.1636 50.5346 20.7101 54.3799 27.4111L54.7731 28.0963L56.4885 27.1115C57.4319 26.5699 58.2038 26.1021 58.2038 26.0718C58.2038 25.8932 49.739 11.1988 49.6124 11.1581C49.5276 11.1306 48.741 11.5169 47.8643 12.0166ZM139.392 12.3726C139.179 12.71 138.173 14.2741 137.156 15.8485C134.381 20.1455 133.922 21.0207 133.468 22.882C133.05 24.5962 133.299 26.4271 134.148 27.8763C134.785 28.9636 136.449 30.4218 137.824 31.098C140.983 32.6516 143.659 32.1308 146.324 29.4435C147.488 28.2691 148.153 27.3112 152.241 20.9121L152.82 20.0056L151.132 18.9213L149.444 17.837L146.858 21.8726C145.435 24.0921 143.922 26.2614 143.495 26.6932C142.074 28.1289 140.621 28.4671 139.127 27.7098C137.267 26.7665 136.762 24.8022 137.788 22.5004C137.955 22.1255 139.248 20.0228 140.661 17.8278C142.075 15.6327 143.165 13.7925 143.085 13.7386C142.214 13.1508 139.962 11.7592 139.883 11.7592C139.826 11.7592 139.606 12.0353 139.392 12.3726ZM36.2199 19.7799C35.3226 20.4865 34.57 21.1239 34.5477 21.1964C34.5028 21.3425 40.3016 38.2282 40.4466 38.3733C40.5233 38.45 41.2527 37.926 43.3518 36.2855C43.6742 36.0336 43.6703 36.0087 43.0056 34.0801C42.4571 32.4882 42.3739 32.0987 42.5536 31.963C42.6747 31.8715 43.5911 31.1527 44.5903 30.3654C45.5894 29.5783 46.5048 28.9353 46.6247 28.9368C46.7445 28.9382 47.5646 29.4142 48.4472 29.9944L50.0518 31.0494L51.6349 29.8002C52.5056 29.1131 53.2353 28.5401 53.2565 28.5267C53.2878 28.5071 38.6715 18.9782 38.0348 18.603C37.9341 18.5438 37.1174 19.0733 36.2199 19.7799ZM41.6295 25.1102C43.1171 26.1557 44.2735 27.0689 44.1989 27.1396C43.7832 27.5338 41.2939 29.4249 41.1906 29.4249C41.123 29.4249 40.8667 28.8913 40.6207 28.239C40.3747 27.5866 39.8534 26.2177 39.4622 25.1967C38.7092 23.232 38.702 23.2092 38.8377 23.2092C38.8855 23.2092 40.1417 24.0646 41.6295 25.1102ZM151.789 30.7097C148.376 33.9553 145.564 36.6684 145.54 36.7391C145.517 36.8096 146.105 37.5105 146.846 38.2966L148.195 39.7261L151.693 36.3715C153.616 34.5266 155.221 33.048 155.259 33.0856C155.296 33.1232 154.947 35.9322 154.483 39.3278L153.639 45.5018L154.786 46.6494L155.933 47.7968L157.655 46.176C164.268 39.9542 168.355 36.0258 168.361 35.8859C168.365 35.7959 167.786 35.1071 167.073 34.3552L165.778 32.9882L164.892 33.7827C164.405 34.2198 162.747 35.782 161.209 37.2543C159.281 39.0994 158.412 39.8343 158.412 39.6191C158.412 39.335 159.93 28.6481 160.122 27.5803C160.191 27.1936 160.04 26.9539 159.099 25.9673L157.995 24.8085L151.789 30.7097ZM26.2697 30.5952C24.5185 30.851 23.9139 31.3242 20.8359 34.8487C19.2707 36.6411 17.9899 38.1638 17.9899 38.2325C17.9899 38.3975 30.8438 49.5477 31.0159 49.532C31.1806 49.5169 33.3188 47.0513 33.4389 46.7379C33.4943 46.5934 32.7809 45.8677 31.4769 44.742L29.4278 42.9729L29.9192 42.3738C30.1894 42.0442 30.5795 41.572 30.7861 41.3246L31.1616 40.8748L34.3761 41.4622L37.5904 42.0496L38.0661 41.5031C40.0392 39.2363 40.3605 38.8403 40.3024 38.7463C40.2663 38.6877 38.6604 38.3571 36.7337 38.0113L33.2308 37.3829L33.1579 36.0619C33.0392 33.9095 31.9852 32.2497 30.0977 31.2431C29.001 30.6583 27.5355 30.4102 26.2697 30.5952ZM87.9546 35.4361C87.954 36.3133 87.8801 38.4662 87.7905 40.2205C87.2962 49.8943 86.5264 57.8293 83.9502 79.8047C82.0419 96.0846 81.3798 102.196 80.8318 108.593C80.5969 111.337 80.3702 113.76 80.3284 113.978C80.2631 114.317 80.1456 114.188 79.5107 113.079C77.8676 110.207 76.0549 106.369 74.8661 103.245L74.2315 101.576L74.7067 100.459C75.9156 97.6163 76.928 93.2655 77.4385 88.7193C77.7485 85.9589 77.7888 79.1501 77.5122 76.2879C76.2131 62.8442 71.4404 54.4267 64.1591 52.737C63.5425 52.5939 61.8646 52.4306 60.4305 52.3742L57.8228 52.2715L57.9251 60.7629C57.9813 65.4332 58.1561 83.3684 58.3132 100.619L58.5991 131.984H62.1613H65.7235L65.7228 130.144C65.7219 127.668 65.278 82.0872 65.1412 70.4192L65.0322 61.1153L65.5945 61.7499C70.0383 66.7653 71.9366 81.3712 69.6311 92.8086C69.0331 95.7753 68.2397 97.8515 66.8448 100.099L66.3807 100.847L67.3801 103.616C70.4112 112.013 74.1952 118.979 78.6766 124.41L79.6477 125.587L79.6993 129.808C79.7541 134.29 79.9249 136.471 80.4588 139.508C81.429 145.028 83.3156 149.078 86.529 152.54C88.2086 154.35 89.3778 155.34 91.552 156.793C94.1636 158.538 93.7645 158.478 95.6013 157.401C99.7813 154.949 102.415 152.158 104.578 147.888C106.167 144.753 107.36 140.678 107.965 136.319C108.599 131.748 108.635 130.799 108.608 119.307L108.581 108.021L109.401 108.92C112.969 112.838 116.509 118.465 120.793 127.034C122.163 129.775 122.285 130.095 122.285 130.975V131.933L125.821 132.046C127.766 132.108 129.378 132.138 129.404 132.112C129.445 132.071 130.137 58.049 130.133 54.165L130.131 52.6519H126.624H123.117L123.038 53.1835C122.994 53.476 122.88 65.1978 122.784 79.2322C122.687 93.2666 122.562 107.019 122.505 109.794L122.402 114.838L122.071 114.292C118.346 108.132 113.569 102.31 109.575 99.0619L108.553 98.2312V71.1855V44.1399L104.997 44.1839L101.442 44.228L101.434 87.4926C101.426 127.523 101.405 130.94 101.141 133.211C100.487 138.857 99.4046 142.646 97.5692 145.719C96.6774 147.212 95.2688 148.934 94.4788 149.497L93.9942 149.842L93.3044 149.233C90.1065 146.407 88.218 142.752 87.3921 137.791C87.1363 136.254 86.777 132.454 86.878 132.353C86.91 132.321 87.4047 132.623 87.9772 133.023C89.1931 133.873 91.4987 135.255 91.7015 135.255C91.7787 135.255 92.5921 133.876 93.5092 132.189C94.9821 129.481 95.1446 129.104 94.901 128.959C92.2979 127.405 88.6739 124.69 87.404 123.344L86.9342 122.845L87.0434 121.076C87.7009 110.417 88.4354 102.908 90.7367 83.3215C93.2689 61.7692 93.9239 55.5064 94.569 46.6816C94.7707 43.9238 95.1426 35.9003 95.1474 34.2093L95.1483 33.8413H91.552H87.9556L87.9546 35.4361ZM27.9626 34.6596C28.8256 35.1001 29.4329 36.0176 29.4329 36.8806C29.4329 37.4837 29.3003 37.7096 28.166 39.0414C27.4693 39.8594 26.838 40.533 26.7632 40.5382C26.6885 40.5434 25.861 39.8801 24.9245 39.0643C23.5402 37.8586 23.2499 37.5295 23.3732 37.3059C23.4565 37.1546 24.1001 36.4232 24.8032 35.6806C25.9675 34.4511 26.1372 34.3305 26.7013 34.3312C27.042 34.3317 27.6095 34.4794 27.9626 34.6596ZM13.532 44.8841C13.0168 45.9197 12.5954 46.843 12.5954 46.9358C12.5954 47.0287 13.3758 48.9969 14.3298 51.3095C15.2836 53.6222 16.1056 55.6189 16.1561 55.7467C16.2066 55.8744 14.7945 55.2303 13.0179 54.3155C11.2413 53.4004 9.72611 52.6519 9.65091 52.6519C9.48548 52.6519 7.74598 56.0349 7.8578 56.1393C7.90112 56.1795 10.3272 57.4433 13.2492 58.9476C16.1713 60.452 19.6081 62.2302 20.8868 62.8992L23.2115 64.1155L24.1116 62.3196L25.0117 60.524L22.7458 59.3372L20.4799 58.1507L20.1056 56.9565C19.8997 56.2996 19.7624 55.7374 19.8005 55.7071C19.8386 55.677 21.7242 55.4043 23.9908 55.1014L28.1119 54.5505L29.1151 52.6083C29.6668 51.5401 30.0801 50.6279 30.0333 50.5811C29.9866 50.5343 27.4358 50.8764 24.3646 51.3411C21.2937 51.8058 18.6945 52.1529 18.5889 52.1123C18.4834 52.0719 17.5513 50.0068 16.5178 47.5235C15.4844 45.0402 14.6005 43.0068 14.5537 43.0048C14.507 43.0029 14.0471 43.8485 13.532 44.8841ZM168.227 51.5125C164.14 53.58 160.722 55.3458 160.631 55.4362C160.521 55.5466 160.756 56.1524 161.345 57.2751C161.828 58.196 162.237 58.9686 162.253 58.992C162.27 59.0153 163.651 58.3318 165.321 57.473L168.358 55.9116L169.781 58.7391C170.564 60.2941 171.224 61.5896 171.248 61.6178C171.285 61.6611 173.925 60.3892 174.074 60.2565C174.102 60.2317 173.495 58.9529 172.725 57.4148C171.956 55.8769 171.326 54.5814 171.326 54.5363C171.326 54.4911 172.057 54.0871 172.951 53.6383L174.576 52.8224L176.326 56.213C177.289 58.0779 178.095 59.6268 178.117 59.6547C178.21 59.7724 181.134 58.1944 181.134 58.0264C181.134 57.6984 175.99 47.7495 175.821 47.7515C175.731 47.7525 172.314 49.445 168.227 51.5125ZM5.32367 62.1799C5.2859 62.2925 5.03906 63.1383 4.77538 64.0597L4.29576 65.7348L5.38039 66.0554C5.97706 66.2318 8.00999 66.8232 9.89808 67.3701C13.8649 68.5186 15.1231 69.0723 15.9421 70.0296C16.7081 70.9251 16.9391 71.7848 16.6967 72.8391C16.4363 73.9726 15.9565 74.6663 15.0741 75.1853C14.4065 75.5779 14.1493 75.632 13.004 75.6199C11.8751 75.6082 11.0669 75.4235 7.09471 74.2705C4.56385 73.5359 2.42516 72.9347 2.34195 72.9347C2.14742 72.9347 1.12213 76.5742 1.27906 76.7077C1.4391 76.8438 9.83727 79.2438 10.9278 79.4653C13.899 80.0684 17.0395 79.1583 18.5408 77.2587C19.811 75.6517 20.5329 73.29 20.409 71.1474C20.2417 68.2555 18.2274 65.9372 14.7967 64.688C13.6669 64.2764 5.81048 61.9755 5.53569 61.9755C5.45689 61.9755 5.36143 62.0676 5.32367 62.1799ZM175.305 64.1094C171.055 64.8609 167.866 68.4922 167.842 72.6076C167.827 75.0527 168.607 76.9548 170.327 78.6745C173.395 81.7408 178.039 82.1384 181.596 79.6394C184.796 77.3906 186.126 73.6481 184.993 70.0795C184.501 68.5278 183.82 67.4613 182.598 66.3297C180.723 64.5925 177.729 63.6809 175.305 64.1094ZM179.442 68.5689C181.063 69.3946 181.899 70.9631 181.745 72.8867C181.677 73.7284 181.551 74.1 181.111 74.746C180.071 76.2749 178.269 77.1874 176.253 77.2064C174.103 77.2265 172.758 76.4993 171.922 74.8642C170.822 72.7125 171.63 70.2401 173.864 68.9194C175.522 67.9393 177.912 67.7891 179.442 68.5689ZM176.067 85.3686C173.055 85.4206 170.572 85.4783 170.549 85.4965C170.527 85.5148 170.509 86.413 170.509 87.4926V89.4554H173.376H176.243L176.196 90.8023L176.148 92.1489L173.41 93.8447L170.672 95.5406V97.7323C170.672 99.818 170.732 100.114 171.089 99.7774C171.174 99.6968 172.584 98.8161 174.222 97.8201L177.199 96.0092L177.467 96.4536C178.309 97.8494 180.627 98.8907 182.549 98.7363C184.708 98.563 186.918 96.9164 187.661 94.9283C187.964 94.1193 188 93.6613 188 90.6182C188 88.7455 187.953 86.7609 187.895 86.208L187.79 85.2026L184.667 85.2381C182.948 85.2577 179.079 85.3164 176.067 85.3686ZM13.9914 89.8755L10.9039 91.7677L10.2647 91.0193C7.40547 87.6722 1.53293 88.9367 0.24723 93.1765C-0.00337161 94.0029 -0.0901745 99.4306 0.112693 101.58L0.215027 102.664L3.01316 102.602C4.55208 102.568 8.44335 102.494 11.6603 102.44L17.5093 102.339L17.4635 100.355L17.4178 98.37L14.5979 98.4278L11.778 98.4855V97.0996V95.7136L14.5555 94.0158L17.3329 92.3179L17.3346 90.1506C17.3354 88.9585 17.2782 87.9833 17.2075 87.9833C17.1367 87.9833 15.6895 88.8348 13.9914 89.8755ZM184.434 90.8867C184.476 93.133 184.439 93.4042 184.03 93.8419C183.207 94.7242 181.871 94.9512 180.805 94.3895C179.889 93.907 179.663 93.2642 179.663 91.132L179.663 89.2918H182.033H184.404L184.434 90.8867ZM6.80995 93.2951C7.08964 93.3512 7.53102 93.6191 7.79077 93.8905C8.25127 94.3712 8.26484 94.4348 8.32026 96.3921L8.37731 98.4003L6.76728 98.5071C5.88192 98.5657 4.81642 98.6141 4.3994 98.6146L3.64155 98.6154L3.56815 96.857C3.48494 94.8641 3.64711 94.1352 4.27843 93.6665C4.73484 93.3278 5.65077 93.0576 6.05651 93.1421C6.19137 93.1701 6.53041 93.239 6.80995 93.2951ZM9.70077 106.713C7.66016 107.157 5.59225 108.468 4.34169 110.11C1.70343 113.574 2.01141 118.141 5.09186 121.234C7.89948 124.054 12.1473 124.607 15.7013 122.616C16.9512 121.916 18.6284 120.152 19.2548 118.879C19.9053 117.556 20.106 116.678 20.1111 115.13C20.119 112.679 19.2697 110.696 17.4939 109.02C16.1976 107.796 14.7079 107.033 12.9609 106.699C11.5117 106.421 11.0342 106.423 9.70077 106.713ZM173.778 109.083C171.833 109.341 170.683 109.893 169.568 111.103C168.12 112.676 167.34 114.953 167.429 117.346C167.477 118.624 167.557 118.974 168.022 119.917C168.888 121.676 170.599 123.068 172.998 123.966C174.755 124.624 182.345 126.743 182.433 126.601C182.587 126.351 183.478 122.988 183.407 122.921C183.371 122.887 181.281 122.259 178.764 121.525C173.745 120.062 172.547 119.538 171.7 118.431C171.043 117.572 170.899 116.825 171.161 115.649C171.32 114.935 171.519 114.574 172.044 114.048C173.49 112.599 174.781 112.659 180.97 114.464C183.443 115.185 185.513 115.723 185.571 115.66C185.684 115.538 186.711 111.987 186.648 111.937C186.527 111.844 177.804 109.393 177.129 109.263C175.825 109.013 174.744 108.955 173.778 109.083ZM14.0329 111.046C16.1216 111.949 17.1318 114.709 16.1342 116.787C14.6126 119.956 9.1162 120.819 7.14065 118.199C6.21655 116.974 5.91249 115.044 6.44312 113.773C7.51042 111.217 11.2878 109.86 14.0329 111.046ZM163.581 126.295C163.042 127.298 162.738 128.034 162.822 128.135C162.9 128.228 163.916 128.775 165.08 129.351L167.198 130.399L167.574 131.599C167.781 132.259 167.919 132.831 167.881 132.868C167.843 132.907 166.119 133.165 164.051 133.444C161.984 133.722 160.133 133.986 159.939 134.029C159.686 134.087 159.303 134.642 158.59 135.99C158.042 137.024 157.594 137.93 157.594 138.004C157.594 138.078 160.151 137.748 163.275 137.272C166.399 136.796 169.029 136.433 169.119 136.465C169.209 136.498 170.127 138.557 171.16 141.042C172.193 143.527 173.075 145.559 173.122 145.557C173.249 145.553 175.102 141.91 175.093 141.68C175.089 141.57 174.304 139.583 173.349 137.263C172.394 134.945 171.577 132.955 171.533 132.842C171.49 132.729 172.954 133.408 174.788 134.35L178.122 136.063L178.989 134.319C179.812 132.664 179.841 132.563 179.555 132.353C179.212 132.102 164.718 124.623 164.574 124.623C164.522 124.623 164.075 125.376 163.581 126.295ZM15.17 126.923C14.4733 127.28 13.9031 127.645 13.9031 127.735C13.9031 127.858 15.3051 130.706 16.6405 133.296C16.6908 133.394 13.6548 134.928 13.4114 134.928C13.323 134.928 12.5066 133.438 11.597 131.616C10.6875 129.794 9.91181 128.27 9.8734 128.229C9.83482 128.188 9.10721 128.5 8.25618 128.923L6.70876 129.693L9.32561 134.928C10.7648 137.807 11.991 140.162 12.0503 140.162C12.1437 140.162 27.3069 132.505 27.4387 132.391C27.5402 132.304 25.7556 128.876 25.6085 128.876C25.5241 128.876 24.1802 129.538 22.6222 130.348C21.0643 131.158 19.7323 131.82 19.6624 131.82C19.5924 131.82 18.9134 130.569 18.1534 129.04C17.3934 127.51 16.6962 126.262 16.6043 126.267C16.5123 126.271 15.8667 126.567 15.17 126.923ZM155.387 140.2C154.758 140.925 154.188 141.612 154.12 141.726C154.038 141.866 154.657 142.514 156 143.695C157.102 144.663 158.003 145.512 158.003 145.581C158.003 145.65 157.672 146.112 157.267 146.607C156.74 147.253 156.416 147.509 156.123 147.514C155.898 147.518 154.537 147.301 153.099 147.032C151.66 146.764 150.336 146.549 150.156 146.554C149.845 146.564 147.056 149.628 147.214 149.786C147.275 149.847 154.077 151.122 154.339 151.122C154.395 151.122 154.406 151.484 154.363 151.927C154.31 152.479 154.399 153.108 154.646 153.921C154.965 154.972 155.134 155.237 156.106 156.209C157.079 157.182 157.343 157.351 158.396 157.671C160.021 158.165 161.602 158.072 162.928 157.404C163.738 156.995 164.28 156.459 166.785 153.587C168.387 151.749 169.642 150.198 169.572 150.138C169.503 150.079 166.651 147.614 163.234 144.66C159.818 141.707 156.912 139.198 156.777 139.086C156.57 138.914 156.352 139.089 155.387 140.2ZM112.555 139.736C112.287 139.932 112.275 140.001 112.467 140.233C112.623 140.421 112.743 140.451 112.862 140.333C113.1 140.094 113.784 140.12 113.785 140.367C113.786 140.479 113.459 140.866 113.057 141.226C112.635 141.605 112.308 142.052 112.28 142.289C112.232 142.688 112.259 142.699 113.416 142.746C114.517 142.791 114.601 142.77 114.601 142.46C114.601 142.179 114.497 142.125 113.948 142.125C113.147 142.125 113.118 141.933 113.85 141.481C114.642 140.991 114.85 140.271 114.345 139.765C114.026 139.447 112.973 139.429 112.555 139.736ZM115.582 143.188V146.869H119.26H122.938V143.188V139.508H119.26H115.582V143.188ZM122.611 143.192V146.548L119.301 146.504L115.991 146.46L115.947 143.148L115.902 139.835H119.257H122.611V143.192ZM25.71 145.982L19.4533 151.964L19.9347 152.565C20.1995 152.896 20.8137 153.556 21.2995 154.032L22.1829 154.898L25.7483 151.497C27.7091 149.626 29.3804 148.07 29.4622 148.039C29.5437 148.007 29.5704 148.155 29.5212 148.366C29.3704 149.014 27.7979 160.124 27.8036 160.501C27.8068 160.708 28.2463 161.312 28.8637 161.957L29.9184 163.06L35.3563 157.888C38.3471 155.044 41.1783 152.339 41.648 151.878L42.5018 151.04L41.0975 149.612L39.6933 148.184L36.181 151.544C34.2492 153.393 32.6433 154.879 32.6121 154.848C32.581 154.817 32.9189 152.144 33.3631 148.908C33.8071 145.672 34.1711 142.873 34.1719 142.687C34.1729 142.492 33.7033 141.848 33.0701 141.174L31.9667 139.999L25.71 145.982ZM116.514 141.574C116.339 141.75 116.378 143.355 116.569 143.86C116.802 144.471 117.191 144.731 117.883 144.737C118.853 144.746 119.237 144.184 119.25 142.737C119.26 141.637 119.235 141.549 118.9 141.501C118.561 141.453 118.537 141.519 118.491 142.629C118.454 143.539 118.378 143.849 118.157 143.988C117.604 144.336 117.307 143.924 117.217 142.683C117.156 141.839 117.071 141.544 116.882 141.508C116.743 141.481 116.577 141.511 116.514 141.574ZM120.181 141.828C119.819 142.788 119.179 144.606 119.179 144.67C119.179 144.71 119.354 144.742 119.568 144.742C119.82 144.742 119.988 144.627 120.043 144.415C120.109 144.165 120.266 144.088 120.716 144.088C121.195 144.088 121.304 144.149 121.304 144.415C121.304 144.655 121.413 144.742 121.712 144.742C121.937 144.742 122.116 144.687 122.11 144.62C122.105 144.552 121.866 143.835 121.579 143.025C121.151 141.815 120.993 141.543 120.691 141.501C120.429 141.463 120.282 141.558 120.181 141.828ZM120.96 143.393C120.969 143.505 120.83 143.597 120.65 143.597C120.274 143.597 120.25 143.471 120.509 142.831L120.696 142.371L120.82 142.78C120.888 143.004 120.951 143.281 120.96 143.393ZM112.149 145.07C112.149 146.869 112.15 146.869 112.549 146.869C112.901 146.869 112.954 146.788 112.998 146.174C113.048 145.48 113.05 145.478 113.753 145.428C114.312 145.387 114.447 145.319 114.406 145.1C114.368 144.903 114.155 144.81 113.66 144.774C113.1 144.733 112.967 144.663 112.967 144.406C112.967 144.134 113.084 144.088 113.784 144.088C114.547 144.088 114.601 144.061 114.601 143.679C114.601 143.279 114.574 143.27 113.375 143.27H112.149V145.07ZM162.744 149.557C163.553 150.255 164.238 150.888 164.266 150.964C164.294 151.04 163.722 151.766 162.995 152.577C161.502 154.244 161.056 154.451 159.952 153.99C159.143 153.651 158.594 153.146 158.309 152.476C157.87 151.446 157.989 151.124 159.433 149.444C160.575 148.116 160.82 147.907 161.027 148.081C161.162 148.194 161.935 148.858 162.744 149.557ZM145.403 151.123C144.601 151.753 143.921 152.339 143.892 152.426C143.863 152.512 144.132 153.417 144.489 154.435L145.139 156.287L143.011 157.95L140.883 159.614L140.003 159.048C139.518 158.737 138.736 158.235 138.264 157.932L137.406 157.382L135.819 158.627C134.625 159.565 134.282 159.917 134.43 160.052C134.538 160.15 137.996 162.414 142.114 165.083L149.601 169.935L151.312 168.592C152.253 167.854 153.003 167.198 152.979 167.136C152.955 167.074 151.612 163.187 149.995 158.5C148.378 153.812 147.011 149.977 146.958 149.977C146.905 149.977 146.205 150.492 145.403 151.123ZM44.646 156.022C43.2617 156.538 42.0875 157.324 40.9751 158.482C40.0521 159.443 34.6566 166.829 34.6692 167.115C34.6736 167.218 36.1254 168.284 37.4423 169.152L37.8713 169.434L40.5556 165.635C42.0321 163.545 43.591 161.482 44.0199 161.05C45.7978 159.261 47.8953 159.152 49.5083 160.766C50.5339 161.792 50.6188 163.441 49.7373 165.218C49.455 165.786 48.0444 167.901 46.6029 169.917C45.1613 171.932 43.9818 173.637 43.9818 173.704C43.9818 173.827 46.6469 175.787 46.9985 175.923C47.2634 176.024 52.5724 168.53 53.3136 167.009C54.1007 165.392 54.3454 164.237 54.2408 162.63C54.1445 161.152 53.7761 160.216 52.8057 158.988C52.0166 157.989 50.1645 156.655 48.9077 156.181C47.5612 155.673 45.7651 155.606 44.646 156.022ZM147.58 162.11C148.231 163.835 148.746 165.263 148.724 165.283C148.66 165.342 143.221 161.517 143.215 161.409C143.208 161.29 146.135 158.973 146.29 158.974C146.349 158.974 146.929 160.386 147.58 162.11ZM130.884 161.232C129.995 161.744 129.269 162.223 129.271 162.297C129.274 162.4 137.022 176.118 137.639 177.111C137.751 177.292 138.128 177.139 139.473 176.368C140.404 175.835 141.165 175.358 141.165 175.308C141.165 175.148 132.67 160.281 132.585 160.292C132.539 160.297 131.774 160.72 130.884 161.232ZM58.5344 162.533C58.5363 162.599 58.7899 164.231 59.0975 166.16C59.4052 168.088 59.62 169.726 59.5747 169.799C59.5294 169.872 59.3612 169.932 59.2012 169.932C59.041 169.932 58.4582 170.158 57.9062 170.434C55.1234 171.826 54.0217 175.244 55.4036 178.198C55.9414 179.349 56.8238 180.277 57.8769 180.801C59.4699 181.593 65.4257 183.871 65.5471 183.735C65.7251 183.535 71.9894 167.802 71.9143 167.743C71.7371 167.605 68.3167 166.302 68.2658 166.354C68.233 166.388 67.7837 167.483 67.2677 168.787C66.7516 170.092 66.271 171.225 66.1995 171.305C66.126 171.387 65.5535 171.242 64.8749 170.968L63.6801 170.486L63.1583 167.324C62.8713 165.584 62.577 164.109 62.5044 164.045C62.4319 163.981 61.8574 163.726 61.2281 163.478C60.5987 163.231 59.7342 162.89 59.3073 162.721C58.8803 162.551 58.5324 162.467 58.5344 162.533ZM124.573 164.652C123.629 164.972 122.838 165.248 122.815 165.266C122.793 165.284 123.465 167.411 124.309 169.994C125.774 174.476 125.824 174.676 125.412 174.406C125.176 174.251 122.781 172.692 120.091 170.943L115.2 167.762L113.744 168.227C112.944 168.483 112.253 168.751 112.209 168.823C112.165 168.895 113.315 172.541 114.764 176.926C116.214 181.311 117.428 184.987 117.463 185.095C117.508 185.231 118.055 185.115 119.293 184.705C120.264 184.384 121.112 184.073 121.178 184.014C121.244 183.955 120.601 181.812 119.75 179.251C118.898 176.69 118.201 174.543 118.2 174.48C118.199 174.417 120.632 175.973 123.606 177.939L129.014 181.514L130.472 181.024C131.274 180.755 131.926 180.45 131.923 180.345C131.907 179.902 126.596 164.147 126.45 164.111C126.362 164.089 125.517 164.333 124.573 164.652ZM102.722 170.157C99.6498 170.528 97.093 170.876 97.04 170.929C96.8751 171.095 97.3212 174.349 97.5079 174.342C97.6037 174.338 99.4108 174.126 101.524 173.872C103.637 173.617 105.39 173.431 105.42 173.457C105.489 173.516 105.95 177.009 105.896 177.057C105.874 177.077 104.384 177.258 102.586 177.46C100.788 177.663 99.2727 177.873 99.2186 177.929C99.1269 178.023 99.3876 180.899 99.5004 181.037C99.5289 181.071 101.025 180.929 102.824 180.721C104.624 180.512 106.15 180.395 106.215 180.461C106.429 180.675 106.714 183.671 106.521 183.681C105.856 183.714 98.9062 184.602 98.8493 184.661C98.7543 184.76 99.1269 187.873 99.2482 187.994C99.3005 188.045 101.967 187.779 105.174 187.401C110.853 186.732 111.005 186.705 111.005 186.357C111.005 185.972 109.276 171.076 109.113 170.055C109.033 169.556 108.949 169.445 108.661 169.462C108.467 169.473 105.794 169.786 102.722 170.157ZM79.469 171.515C79.0721 172.579 78.6914 173.514 78.6229 173.592C78.515 173.717 77.0588 173.574 75.2686 173.264C74.7625 173.176 74.7597 173.18 74.6477 174.049C74.5859 174.529 74.4942 175.187 74.4442 175.511L74.3531 176.101L75.9323 176.311C77.2675 176.487 77.4964 176.56 77.4146 176.784C77.3614 176.929 77.1299 177.532 76.9002 178.124L76.4827 179.2L74.9856 178.988C72.6392 178.657 72.8298 178.572 72.6254 180.03C72.5278 180.726 72.4687 181.316 72.4942 181.342C72.5195 181.367 73.1767 181.47 73.9543 181.57C74.7885 181.678 75.365 181.828 75.3601 181.936C75.3557 182.036 74.9954 183.002 74.5595 184.081C74.1236 185.161 73.7946 186.09 73.8284 186.145C73.8621 186.201 74.3512 186.298 74.9152 186.362C75.479 186.426 76.133 186.517 76.3684 186.563C76.7825 186.646 76.8252 186.576 77.6762 184.429L78.556 182.209L79.4551 182.308C79.9496 182.363 80.4394 182.453 80.5435 182.508C80.6741 182.578 80.485 183.241 79.9318 184.654C79.4914 185.778 79.1304 186.745 79.1296 186.801C79.1281 186.9 81.2969 187.271 81.879 187.271C82.0937 187.271 82.3753 186.731 83.0152 185.094L83.866 182.917L85.2979 183.12C87.5821 183.445 87.389 183.532 87.5925 182.08C87.6901 181.384 87.7504 180.795 87.7264 180.771C87.7024 180.747 87.0822 180.643 86.348 180.539C85.6054 180.434 85.0131 180.271 85.0133 180.171C85.0133 179.975 85.6037 178.371 85.8349 177.939C85.9658 177.694 86.1185 177.689 87.4985 177.885C88.3344 178.003 89.1015 178.102 89.2034 178.105C89.3518 178.11 89.6109 176.598 89.6647 175.412C89.6688 175.323 89.0937 175.161 88.387 175.054C87.6801 174.946 87.081 174.835 87.0555 174.808C87.03 174.78 87.3692 173.883 87.8093 172.814C88.2494 171.745 88.6095 170.82 88.6095 170.758C88.6095 170.649 85.6709 170.2 85.5784 170.295C85.5401 170.333 84.4951 172.913 84.0284 174.12C83.9033 174.443 83.8338 174.454 82.8604 174.308C82.2912 174.223 81.8052 174.134 81.7805 174.11C81.7558 174.087 82.0934 173.156 82.5306 172.041L83.3258 170.014L82.8208 169.9C82.5431 169.838 81.8377 169.74 81.2533 169.684L80.1907 169.581L79.469 171.515ZM63.1702 174.044L64.8834 174.721L64.5844 175.476C64.4198 175.89 64.0517 176.819 63.7661 177.538C63.4807 178.258 63.1899 178.906 63.1201 178.978C62.9703 179.133 59.7233 177.873 59.3066 177.499C58.4628 176.741 58.6419 175.017 59.6715 173.987C60.4869 173.171 60.9801 173.179 63.1702 174.044ZM82.6183 177.295C82.6948 177.366 82.5476 177.99 82.2913 178.681L81.8254 179.939L81.2533 179.844C80.9386 179.793 80.534 179.748 80.3542 179.746C79.6812 179.737 79.604 179.54 79.9347 178.676C80.6792 176.73 80.4828 176.928 81.5397 177.055C82.0566 177.116 82.5419 177.225 82.6183 177.295Z" fill="#005BBB"/>
</svg>
