<svg width="93" height="93" viewBox="0 0 93 93" fill="none" xmlns="http://www.w3.org/2000/svg">
<path fill-rule="evenodd" clip-rule="evenodd" d="M40.4776 0.344889L37.7283 0.678909L37.7537 0.973118C37.8333 1.89143 38.7126 9.13522 38.7488 9.17155C38.8011 9.22382 44.5785 8.56096 44.6554 8.4938C44.7184 8.43878 44.5659 6.93715 44.4886 6.8509C44.4598 6.81869 43.5636 6.89645 42.4973 7.02365C41.4309 7.15077 40.5358 7.23177 40.5081 7.20353C40.4576 7.15174 40.2548 5.48594 40.2945 5.44847C40.3061 5.43739 41.057 5.3432 41.9628 5.23922L43.6099 5.05012L43.5552 4.3761C43.491 3.58345 43.4564 3.47025 43.2789 3.4713C43.2058 3.47171 42.5638 3.54421 41.8522 3.63232C41.1406 3.72044 40.4471 3.79294 40.311 3.79335L40.0637 3.79415L39.9767 3.00523C39.929 2.57128 39.8973 2.20773 39.9063 2.19721C39.9153 2.18661 40.7207 2.08546 41.6961 1.97226C42.6715 1.85906 43.545 1.75023 43.6371 1.73049C43.7956 1.69642 43.8011 1.66252 43.7389 1.10582C43.6209 0.0508432 43.6025 -0.00992491 43.4052 0.000998679C43.3071 0.00642001 41.9897 0.16113 40.4776 0.344889ZM51.8899 1.34177C51.6731 1.91182 51.4702 2.40645 51.4389 2.441C51.4076 2.47556 51.0065 2.44748 50.5476 2.37846C50.0888 2.30952 49.7042 2.26299 49.6931 2.27513C49.6542 2.31753 49.5147 3.51135 49.5429 3.56104C49.5585 3.58855 49.8306 3.63661 50.1474 3.66784C50.4644 3.69908 50.7692 3.74221 50.825 3.76365C50.9761 3.82158 50.4795 5.09066 50.3086 5.08346C50.2387 5.08055 49.8609 5.03273 49.4693 4.97714C49.0777 4.92163 48.7452 4.89671 48.7305 4.92179C48.7158 4.94688 48.6788 5.20411 48.6483 5.49338C48.6179 5.78265 48.5756 6.08058 48.5545 6.15543C48.5237 6.26483 48.5922 6.30164 48.904 6.34323C49.1174 6.37172 49.4247 6.4197 49.5871 6.44988L49.8824 6.50482L49.4826 7.50607C49.2628 8.05678 49.0971 8.52164 49.1145 8.53912C49.168 8.59252 50.5474 8.75484 50.5896 8.71268C50.6113 8.69092 50.8044 8.23989 51.0187 7.71038L51.4083 6.74757L51.927 6.77524C52.2123 6.79045 52.4595 6.81643 52.4764 6.83293C52.4932 6.84944 52.3233 7.31948 52.0987 7.87747C51.6312 9.03877 51.5749 8.90963 52.6074 9.04363C52.9187 9.08408 53.1961 9.09371 53.2237 9.06515C53.2513 9.03659 53.4473 8.56534 53.6593 8.01794C54.031 7.05772 54.052 7.02422 54.2559 7.06532C54.6432 7.14325 55.8924 7.29051 55.9211 7.26154C55.9792 7.20296 56.125 5.95185 56.0791 5.90564C56.0528 5.87918 55.7229 5.81607 55.346 5.76542C54.9691 5.71476 54.6455 5.6582 54.6269 5.63967C54.5902 5.60286 55.0145 4.47384 55.0956 4.3926C55.1395 4.34875 56.266 4.46737 56.7426 4.56601C56.8986 4.59829 56.9204 4.55703 56.9682 4.13724C56.9973 3.88179 57.0392 3.57948 57.0614 3.46539C57.1011 3.261 57.0915 3.25671 56.3998 3.16407C56.0138 3.11236 55.681 3.05321 55.6604 3.0325C55.6397 3.01178 55.8045 2.52839 56.0266 1.95826C56.2486 1.38813 56.4197 0.910003 56.4068 0.895762C56.3939 0.881602 56.0554 0.825043 55.6546 0.770182L54.9258 0.670493L54.4984 1.75452L54.071 2.83854L53.5413 2.78239C53.25 2.75156 53.001 2.7162 52.988 2.70382C52.975 2.69152 53.1479 2.22116 53.3721 1.65855C53.5965 1.09603 53.7799 0.60471 53.7799 0.56668C53.7799 0.528649 53.5525 0.473141 53.2745 0.443364C52.9966 0.413587 52.6599 0.370378 52.5265 0.347317L52.2839 0.305484L51.8899 1.34177ZM33.0984 1.78154C32.6425 1.96037 32.2696 2.13984 32.2696 2.18038C32.2696 2.22091 32.6525 3.24417 33.1207 4.45434C33.5888 5.66443 33.9618 6.68324 33.9496 6.7182C33.9373 6.75323 32.7088 6.05857 31.2196 5.17449L28.5118 3.56711L28.0254 3.75167C27.7578 3.85314 27.4267 3.98617 27.2897 4.04726L27.0404 4.15827L28.574 8.12313C29.4174 10.3038 30.1182 12.1005 30.1313 12.1157C30.1738 12.1653 31.9461 11.4582 31.9461 11.3916C31.9461 11.3559 31.5633 10.3367 31.0954 9.12648C30.6274 7.91631 30.2545 6.91741 30.2665 6.90673C30.2785 6.89605 31.4992 7.59281 32.979 8.45505L35.6697 10.0227L36.4021 9.72939C37.0067 9.48729 37.1278 9.41001 37.0956 9.28702C36.9633 8.78041 34.0741 1.44882 34.0082 1.45222C33.9637 1.45457 33.5544 1.60272 33.0984 1.78154ZM60.4179 2.19607C60.3795 2.29625 59.67 4.08561 58.8412 6.17258C58.0125 8.25955 57.3443 9.97407 57.3564 9.98257C57.4136 10.0229 59.0831 10.6726 59.1287 10.6723C59.1572 10.6721 59.4068 10.1076 59.6832 9.41778C59.9596 8.72797 60.212 8.16359 60.244 8.16359C60.3307 8.16359 61.3319 8.57383 61.397 8.63597C61.4279 8.66543 61.562 9.37724 61.6951 10.2178C61.8282 11.0583 61.9667 11.7744 62.003 11.809C62.0902 11.8926 63.9093 12.6198 63.9441 12.585C63.9664 12.5626 63.5847 9.95603 63.4486 9.20173C63.4126 9.00187 63.4417 8.97566 63.8392 8.85056C64.7076 8.57723 65.4535 7.79664 65.7188 6.88318C66.075 5.65707 65.4477 4.11167 64.3657 3.55003C64.0986 3.41134 60.6026 2.01401 60.5228 2.01401C60.5036 2.01401 60.4564 2.0959 60.4179 2.19607ZM53.513 4.14743C53.5284 4.1628 53.4375 4.44463 53.311 4.77372L53.081 5.37201L52.5735 5.35736C52.2944 5.34935 52.0477 5.32451 52.0254 5.30209C51.9797 5.25638 52.1165 4.80956 52.3285 4.31217L52.4698 3.98058L52.9774 4.05001C53.2567 4.0882 53.4976 4.13206 53.513 4.14743ZM62.6459 4.72274C63.129 4.92195 63.5848 5.15879 63.6588 5.24893C64.0829 5.76615 63.7888 6.7877 63.1231 7.11015L62.7687 7.28185L61.8019 6.90576L60.8349 6.52974L61.1981 5.62721C61.3979 5.1308 61.5927 4.6428 61.6311 4.54262C61.6694 4.44245 61.7158 4.36056 61.7342 4.36056C61.7525 4.36056 62.1628 4.52353 62.6459 4.72274ZM23.6775 5.9444C23.2439 6.19152 22.8891 6.42366 22.8891 6.46024C22.8891 6.51178 24.9985 10.2449 26.9007 13.5598L27.0952 13.8987L27.9438 13.4115C28.4105 13.1436 28.7923 12.9122 28.7923 12.8972C28.7923 12.8089 24.6049 5.53982 24.5423 5.51968C24.5004 5.50608 24.1112 5.69721 23.6775 5.9444ZM68.9547 6.12047C68.8492 6.2874 68.3514 7.06112 67.8485 7.83993C66.4759 9.96558 66.2488 10.3986 66.0242 11.3193C65.8173 12.1673 65.9406 13.073 66.3604 13.7899C66.6755 14.3277 67.4985 15.0491 68.1788 15.3836C69.7416 16.1521 71.0654 15.8945 72.3835 14.5651C72.9596 13.9842 73.2882 13.5103 75.3108 10.3448L75.5973 9.89639L74.7623 9.36001L73.9273 8.82362L72.6479 10.82C71.9441 11.9179 71.1954 12.991 70.984 13.2046C70.2812 13.9148 69.5623 14.0822 68.8234 13.7075C67.9031 13.2409 67.6534 12.2692 68.1611 11.1305C68.2437 10.9451 68.8834 9.90489 69.5825 8.81909C70.2816 7.7332 70.8212 6.8229 70.7816 6.7962C70.3505 6.50547 69.2367 5.81704 69.1974 5.81704C69.1694 5.81704 69.0602 5.95363 68.9547 6.12047ZM17.9173 9.78473C17.4734 10.1343 17.1011 10.4496 17.0901 10.4855C17.0679 10.5577 19.9364 18.9108 20.0082 18.9826C20.0461 19.0205 20.4069 18.7612 21.4453 17.9497C21.6048 17.8251 21.6028 17.8128 21.274 16.8588C21.0027 16.0713 20.9616 15.8786 21.0504 15.8115C21.1104 15.7662 21.5637 15.4106 22.058 15.0212C22.5522 14.6318 23.0051 14.3137 23.0643 14.3145C23.1236 14.3152 23.5293 14.5507 23.9659 14.8377L24.7597 15.3596L25.5428 14.7416C25.9735 14.4017 26.3345 14.1182 26.345 14.1116C26.3604 14.1019 19.13 9.38816 18.8151 9.20254C18.7652 9.17325 18.3612 9.43518 17.9173 9.78473ZM20.5933 12.4215C21.3292 12.9387 21.9012 13.3905 21.8644 13.4254C21.6587 13.6204 20.4273 14.5559 20.3762 14.5559C20.3428 14.5559 20.216 14.292 20.0943 13.9693C19.9726 13.6466 19.7147 12.9694 19.5212 12.4643C19.1487 11.4925 19.1452 11.4811 19.2123 11.4811C19.2359 11.4811 19.8573 11.9043 20.5933 12.4215ZM75.087 15.1915C73.3985 16.797 72.0076 18.1392 71.9961 18.1741C71.9844 18.209 72.2751 18.5557 72.642 18.9446L73.3091 19.6517L75.0395 17.9923C75.9911 17.0797 76.785 16.3482 76.8036 16.3668C76.8222 16.3854 76.6495 17.775 76.4199 19.4547L76.0024 22.5088L76.5696 23.0766L77.1369 23.6442L77.9892 22.8424C81.2603 19.7646 83.2822 17.8213 83.2852 17.7521C83.2871 17.7076 83.0003 17.3668 82.6479 16.9949L82.0072 16.3187L81.569 16.7117C81.3279 16.9279 80.508 17.7007 79.7469 18.429C78.7933 19.3417 78.3632 19.7053 78.3632 19.5988C78.3632 19.4583 79.1142 14.1716 79.2092 13.6434C79.2436 13.4521 79.1685 13.3336 78.7033 12.8455L78.157 12.2723L75.087 15.1915ZM12.9951 15.1349C12.1288 15.2614 11.8298 15.4955 10.3071 17.239C9.53285 18.1257 8.89926 18.8789 8.89926 18.9129C8.89926 18.9945 15.2578 24.5103 15.343 24.5025C15.4244 24.4951 16.4822 23.2754 16.5416 23.1203C16.569 23.0489 16.2161 22.6899 15.571 22.133L14.5574 21.2579L14.8005 20.9615C14.9341 20.7985 15.1271 20.5649 15.2293 20.4425L15.415 20.22L17.0052 20.5106L18.5953 20.8011L18.8306 20.5308C19.8066 19.4095 19.9655 19.2136 19.9368 19.167C19.919 19.1381 19.1245 18.9745 18.1715 18.8035L16.4387 18.4926L16.4026 17.8391C16.3439 16.7744 15.8225 15.9533 14.8888 15.4554C14.3462 15.1661 13.6213 15.0433 12.9951 15.1349ZM43.5095 17.5296C43.5091 17.9635 43.4726 19.0285 43.4283 19.8963C43.1837 24.6818 42.8029 28.607 41.5286 39.4779C40.5845 47.5312 40.257 50.5545 39.986 53.719C39.8698 55.0763 39.7576 56.2751 39.7369 56.3828C39.7046 56.5506 39.6465 56.4866 39.3324 55.9378C38.5196 54.5175 37.6229 52.6188 37.0348 51.0731L36.7209 50.2479L36.956 49.695C37.554 48.2889 38.0548 46.1366 38.3074 43.8878C38.4607 42.5222 38.4806 39.154 38.3438 37.7382C37.7012 31.0878 35.3402 26.9238 31.7383 26.088C31.4332 26.0172 30.6032 25.9364 29.8938 25.9085L28.6038 25.8577L28.6544 30.0583C28.6823 32.3686 28.7687 41.2408 28.8464 49.7744L28.9879 65.2899H30.75H32.5122L32.5118 64.3796C32.5113 63.1549 32.2918 40.607 32.2241 34.835L32.1702 30.2326L32.4484 30.5465C34.6466 33.0275 35.5856 40.2528 34.4452 45.9106C34.1494 47.3782 33.7569 48.4053 33.0668 49.5172L32.8372 49.8872L33.3317 51.2569C34.8311 55.4108 36.703 58.8564 38.9198 61.5431L39.4002 62.1253L39.4257 64.2133C39.4528 66.4308 39.5373 67.5097 39.8014 69.012C40.2814 71.7425 41.2146 73.746 42.8042 75.4587C43.6351 76.3539 44.2135 76.8435 45.289 77.5624C46.5809 78.4259 46.3835 78.3963 47.2921 77.8632C49.3599 76.6502 50.6626 75.2699 51.7329 73.1576C52.5188 71.6064 53.1089 69.5906 53.4082 67.4342C53.722 65.1734 53.7398 64.704 53.7262 59.019L53.713 53.4358L54.1184 53.8808C55.8838 55.8187 57.6346 58.6024 59.7539 62.8413C60.4319 64.1973 60.4918 64.3557 60.4918 64.7909V65.2646L62.2411 65.3205C63.2033 65.3512 64.0009 65.366 64.0136 65.3533C64.034 65.3329 64.3765 28.7157 64.3743 26.7944L64.3734 26.0459H62.6384H60.9035L60.8645 26.3089C60.8429 26.4536 60.7864 32.2521 60.7387 39.1947C60.691 46.1372 60.629 52.9404 60.6009 54.3129L60.5497 56.8083L60.3863 56.5381C58.5436 53.4908 56.1803 50.6106 54.2045 49.004L53.6991 48.5931V35.2141V21.8351L51.9402 21.8569L50.1814 21.8788L50.1774 43.2809C50.1737 63.0831 50.163 64.7737 50.0327 65.8968C49.7089 68.6897 49.1736 70.5644 48.2656 72.0844C47.8245 72.8231 47.1277 73.6749 46.7368 73.9534L46.4971 74.1242L46.1559 73.8226C44.574 72.4249 43.6397 70.6168 43.2312 68.1624C43.1046 67.4021 42.9269 65.5226 42.9769 65.4727C42.9927 65.4568 43.2374 65.6059 43.5206 65.804C44.1221 66.2246 45.2626 66.9082 45.363 66.9082C45.4012 66.9082 45.8036 66.2257 46.2572 65.3915C46.9858 64.0519 47.0662 63.8654 46.9457 63.7934C45.658 63.0247 43.8653 61.682 43.2371 61.0158L43.0047 60.7693L43.0587 59.8941C43.384 54.621 43.7473 50.9066 44.8857 41.2176C46.1383 30.5561 46.4624 27.458 46.7815 23.0925C46.8813 21.7283 47.0652 17.7592 47.0676 16.9227L47.0681 16.7406H45.289H43.5099L43.5095 17.5296ZM13.8326 17.1454C14.2595 17.3634 14.5599 17.8172 14.5599 18.2441C14.5599 18.5425 14.4943 18.6542 13.9332 19.313C13.5885 19.7177 13.2762 20.0509 13.2393 20.0535C13.2023 20.0561 12.793 19.7279 12.3297 19.3243C11.6449 18.7279 11.5013 18.5651 11.5623 18.4545C11.6035 18.3797 11.9219 18.0179 12.2697 17.6505C12.8456 17.0423 12.9295 16.9826 13.2086 16.983C13.3771 16.9832 13.6579 17.0563 13.8326 17.1454ZM6.69405 22.2033C6.43916 22.7156 6.23068 23.1724 6.23068 23.2182C6.23068 23.2642 6.61674 24.2379 7.08867 25.3818C7.56052 26.5259 7.96712 27.5136 7.99211 27.5768C8.0171 27.64 7.31857 27.3214 6.43972 26.8688C5.56087 26.4162 4.81132 26.0459 4.77412 26.0459C4.69229 26.0459 3.83179 27.7194 3.8871 27.771C3.90853 27.7909 5.10866 28.4161 6.55415 29.1603C7.99963 29.9044 9.69976 30.7841 10.3323 31.115L11.4823 31.7167L11.9275 30.8283L12.3728 29.94L11.2519 29.353L10.131 28.766L9.94583 28.1753C9.84402 27.8503 9.77609 27.5722 9.79494 27.5572C9.81378 27.5424 10.7466 27.4075 11.8678 27.2576L13.9064 26.9851L14.4027 26.0243C14.6756 25.4959 14.88 25.0447 14.8569 25.0215C14.8338 24.9984 13.5719 25.1676 12.0527 25.3974C10.5336 25.6273 9.2478 25.799 9.19556 25.779C9.1434 25.759 8.6823 24.7374 8.17106 23.509C7.65983 22.2805 7.22259 21.2746 7.19946 21.2737C7.17633 21.2727 6.94885 21.691 6.69405 22.2033ZM83.2186 25.4822C81.1968 26.505 79.506 27.3785 79.4612 27.4232C79.4066 27.4779 79.5229 27.7775 79.8143 28.3329C80.0533 28.7885 80.2555 29.1706 80.2637 29.1822C80.2719 29.1938 80.9548 28.8556 81.7812 28.4308L83.2837 27.6584L83.9876 29.0571C84.3747 29.8264 84.7013 30.4672 84.7132 30.4811C84.7316 30.5026 86.0375 29.8734 86.1109 29.8077C86.1247 29.7954 85.8245 29.1628 85.4438 28.402C85.0632 27.6412 84.7517 27.0004 84.7517 26.9781C84.7517 26.9557 85.1134 26.7559 85.5555 26.5338L86.3594 26.1302L87.2252 27.8075C87.7014 28.73 88.1001 29.4962 88.1111 29.5101C88.1572 29.5682 89.6036 28.7876 89.6036 28.7045C89.6036 28.5423 87.0589 23.6208 86.9755 23.6218C86.931 23.6222 85.2404 24.4595 83.2186 25.4822ZM2.63352 30.7592C2.61484 30.8149 2.49273 31.2333 2.36229 31.6891L2.12503 32.5178L2.66158 32.6764C2.95674 32.7636 3.96239 33.0562 4.89639 33.3267C6.85869 33.8949 7.48111 34.1688 7.88625 34.6423C8.26519 35.0853 8.37945 35.5106 8.25953 36.0321C8.13071 36.5928 7.89337 36.936 7.45685 37.1927C7.1266 37.3869 6.99939 37.4137 6.43285 37.4077C5.87439 37.4019 5.47458 37.3106 3.50962 36.7402C2.25765 36.3768 1.19968 36.0794 1.15852 36.0794C1.06229 36.0794 0.555095 37.8798 0.632726 37.9458C0.711894 38.0131 4.86631 39.2004 5.40577 39.31C6.87559 39.6083 8.42911 39.1581 9.17178 38.2184C9.80011 37.4234 10.1572 36.2552 10.0959 35.1953C10.0132 33.7647 9.01676 32.6179 7.31962 31.9999C6.76076 31.7963 2.87433 30.6581 2.7384 30.6581C2.69942 30.6581 2.6522 30.7036 2.63352 30.7592ZM86.72 31.7137C84.6177 32.0854 83.0401 33.8818 83.0282 35.9176C83.021 37.1271 83.4065 38.0681 84.2576 38.9187C85.7751 40.4356 88.0726 40.6323 89.8318 39.3961C91.4149 38.2836 92.073 36.4323 91.5127 34.667C91.2691 33.8994 90.9322 33.3718 90.3279 32.8121C89.4002 31.9527 87.9189 31.5017 86.72 31.7137ZM88.7666 33.9197C89.5683 34.3282 89.9821 35.1041 89.9057 36.0556C89.8723 36.472 89.8097 36.6559 89.5923 36.9754C89.0778 37.7317 88.1863 38.1831 87.1889 38.1925C86.1252 38.2025 85.46 37.8427 85.0467 37.0339C84.5026 35.9695 84.902 34.7464 86.007 34.0931C86.8273 33.6083 88.0094 33.534 88.7666 33.9197ZM87.0968 42.2302C85.6068 42.2559 84.3787 42.2845 84.3675 42.2935C84.3564 42.3025 84.3473 42.7469 84.3473 43.2809V44.2519H85.7657H87.1842L87.1607 44.9181L87.1372 45.5843L85.7827 46.4232L84.4282 47.2621V48.3463C84.4282 49.378 84.458 49.5244 84.6344 49.358C84.6767 49.3181 85.374 48.8824 86.184 48.3897L87.6569 47.4939L87.7895 47.7138C88.206 48.4042 89.3529 48.9193 90.3037 48.8429C91.3713 48.7573 92.4648 47.9427 92.8325 46.9592C92.9822 46.559 93 46.3325 93 44.8271C93 43.9007 92.9766 42.919 92.9481 42.6455L92.8961 42.1481L91.351 42.1656C90.5011 42.1753 88.5867 42.2044 87.0968 42.2302ZM6.92128 44.4597L5.39396 45.3957L5.07777 45.0255C3.66335 43.3697 0.758312 43.9953 0.1223 46.0926C-0.00166787 46.5014 -0.0446076 49.1864 0.0557472 50.2498L0.10637 50.786L1.49055 50.7552C2.25183 50.7383 4.17676 50.7021 5.76813 50.6749L8.66152 50.6253L8.63887 49.6435L8.61623 48.6618L7.22129 48.6903L5.82635 48.7189V48.0333V47.3477L7.20035 46.5078L8.57426 45.6679L8.57507 44.5958C8.57547 44.0061 8.54717 43.5236 8.51224 43.5236C8.47722 43.5236 7.76132 43.9449 6.92128 44.4597ZM91.2357 44.9599C91.2565 46.0711 91.2383 46.2053 91.0362 46.4218C90.6289 46.8582 89.9679 46.9706 89.4406 46.6927C88.9875 46.454 88.8761 46.136 88.876 45.0813L88.8758 44.171H90.0484H91.2209L91.2357 44.9599ZM3.36875 46.1513C3.50711 46.179 3.72545 46.3116 3.85395 46.4458C4.08175 46.6836 4.08846 46.7151 4.11587 47.6833L4.14409 48.6767L3.34764 48.7296C2.90967 48.7585 2.38259 48.7825 2.1763 48.7827L1.8014 48.7831L1.76509 47.9133C1.72393 46.9274 1.80415 46.5669 2.11646 46.335C2.34224 46.1675 2.79533 46.0338 2.99604 46.0756C3.06275 46.0895 3.23047 46.1235 3.36875 46.1513ZM4.79879 52.7891C3.78933 53.0086 2.76638 53.6569 2.14775 54.4693C0.842655 56.1831 0.995007 58.442 2.51885 59.9723C3.90772 61.367 6.00903 61.6406 7.76714 60.6558C8.38544 60.3095 9.21513 59.4368 9.52501 58.807C9.84677 58.1528 9.94608 57.7182 9.94858 56.9524C9.95246 55.7399 9.53236 54.7591 8.65392 53.9299C8.01265 53.3246 7.27571 52.9473 6.4115 52.7818C5.69462 52.6446 5.45841 52.6456 4.79879 52.7891ZM85.9647 53.9613C85.0024 54.0891 84.4338 54.362 83.8823 54.9606C83.1657 55.7386 82.7797 56.8651 82.824 58.0489C82.8476 58.681 82.8875 58.854 83.1173 59.3205C83.5457 60.1907 84.3922 60.8796 85.5788 61.3237C86.448 61.6491 90.2025 62.6975 90.2461 62.627C90.3224 62.5034 90.763 60.8397 90.7281 60.8068C90.71 60.7898 89.6764 60.479 88.4311 60.1161C85.9482 59.3926 85.3559 59.1332 84.9369 58.5855C84.6118 58.1607 84.5403 57.7912 84.6701 57.2092C84.7489 56.856 84.8472 56.6777 85.1068 56.4176C85.8224 55.7005 86.4608 55.7302 89.5226 56.623C90.7456 56.9796 91.7699 57.2459 91.7987 57.2147C91.8545 57.1543 92.3623 55.3977 92.3311 55.3733C92.2715 55.3269 87.9564 54.1145 87.6224 54.0503C86.9772 53.9265 86.4427 53.8977 85.9647 53.9613ZM6.94182 54.9326C7.97504 55.379 8.4748 56.7443 7.98127 57.7722C7.22857 59.3398 4.50961 59.7669 3.53234 58.471C3.07521 57.8648 2.9248 56.9101 3.18729 56.2814C3.71526 55.0171 5.58383 54.3458 6.94182 54.9326ZM80.9203 62.4758C80.6538 62.9717 80.5035 63.3362 80.5452 63.3861C80.5834 63.4318 81.086 63.7026 81.6621 63.9876L82.7095 64.5061L82.8955 65.0997C82.9978 65.4262 83.0662 65.7087 83.0473 65.7275C83.0285 65.7463 82.1761 65.8744 81.1531 66.0121C80.1302 66.1499 79.2146 66.2802 79.1186 66.3018C78.9935 66.3301 78.8043 66.605 78.4515 67.2714C78.1806 67.7831 77.9589 68.2315 77.9589 68.2679C77.9589 68.3043 79.2235 68.1414 80.769 67.9058C82.3145 67.6703 83.6155 67.4907 83.66 67.5068C83.7044 67.5229 84.1588 68.5417 84.6696 69.771C85.1804 71.0002 85.6171 72.0053 85.64 72.0045C85.703 72.0025 86.6194 70.2 86.6152 70.0863C86.6132 70.032 86.225 69.0488 85.7525 67.9016C85.28 66.7545 84.8757 65.7702 84.8542 65.7145C84.8327 65.6587 85.5572 65.9944 86.4643 66.4605L88.1136 67.3079L88.5426 66.4449C88.9493 65.6264 88.9638 65.5762 88.8226 65.4726C88.6529 65.3482 81.4829 61.6487 81.4115 61.6487C81.3858 61.6487 81.1648 62.0209 80.9203 62.4758ZM7.50432 62.7865C7.15967 62.9629 6.87761 63.1435 6.87761 63.188C6.87761 63.2491 7.57112 64.658 8.23171 65.9389C8.25662 65.9872 6.75478 66.7464 6.63437 66.7464C6.59062 66.7464 6.18677 66.0091 5.73683 65.1078C5.28689 64.2066 4.90318 63.4527 4.88418 63.4324C4.8651 63.4121 4.50516 63.5667 4.08417 63.776L3.31869 64.1564L4.6132 66.7461C5.32514 68.1703 5.93172 69.3357 5.96107 69.3357C6.00725 69.3357 13.5082 65.5477 13.5734 65.4915C13.6236 65.4481 12.7408 63.7525 12.668 63.7525C12.6263 63.7525 11.9615 64.0802 11.1908 64.4807C10.4201 64.8813 9.76121 65.209 9.7266 65.209C9.69199 65.209 9.35608 64.59 8.98013 63.8334C8.60418 63.0769 8.25929 62.4596 8.21384 62.4619C8.16831 62.4641 7.84897 62.6102 7.50432 62.7865ZM76.8672 69.3542C76.5559 69.7128 76.2737 70.0526 76.2403 70.1092C76.1995 70.1783 76.5057 70.4988 77.1703 71.083C77.7152 71.5621 78.1611 71.9819 78.1611 72.0161C78.1611 72.0502 77.9973 72.2786 77.7972 72.5236C77.5361 72.8431 77.3761 72.9699 77.2311 72.9723C77.1199 72.9741 76.4467 72.8669 75.7351 72.7341C75.0235 72.6013 74.3685 72.4949 74.2795 72.4976C74.1257 72.5024 72.746 74.0182 72.8242 74.0964C72.8539 74.1263 76.2191 74.757 76.3484 74.757C76.376 74.757 76.3815 74.9363 76.3604 75.1555C76.3342 75.4284 76.3785 75.7396 76.5006 76.1419C76.6583 76.6616 76.742 76.7928 77.2228 77.2737C77.7038 77.7551 77.8344 77.8384 78.3554 77.9968C79.1595 78.2411 79.9415 78.195 80.5972 77.8646C80.9979 77.6625 81.2662 77.397 82.5051 75.9766C83.298 75.0676 83.9186 74.2998 83.8842 74.2706C83.8498 74.2413 82.4389 73.0219 80.7488 71.5607C79.0587 70.0995 77.6213 68.8586 77.5546 68.8031C77.4523 68.718 77.3445 68.8045 76.8672 69.3542ZM55.6786 69.1246C55.5461 69.2216 55.5401 69.2558 55.6354 69.3708C55.7123 69.4634 55.772 69.4786 55.8305 69.42C55.9484 69.302 56.2866 69.3145 56.2874 69.4368C56.2878 69.4925 56.1258 69.6836 55.9273 69.8616C55.7181 70.0493 55.5566 70.2702 55.5426 70.3876C55.5191 70.5851 55.5323 70.5904 56.1048 70.6136C56.6492 70.6357 56.6911 70.6255 56.6911 70.472C56.6911 70.333 56.6395 70.3067 56.3677 70.3067C55.9718 70.3067 55.9574 70.2117 56.3192 69.9879C56.7112 69.7456 56.814 69.3892 56.5641 69.1391C56.4066 68.9817 55.8857 68.9731 55.6786 69.1246ZM57.1763 70.8326V72.6532H58.9958H60.8153V70.8326V69.012H58.9958H57.1763V70.8326ZM60.6536 70.8343V72.4947L59.016 72.4728L57.3785 72.4509L57.3566 70.8124L57.3347 69.1738H58.9941H60.6536V70.8343ZM12.7182 72.2144L9.62318 75.1739L9.86133 75.4712C9.99233 75.6347 10.2961 75.9612 10.5365 76.1967L10.9735 76.625L12.7372 74.9425C13.7072 74.0172 14.5339 73.2474 14.5744 73.2319C14.6147 73.2165 14.6279 73.2893 14.6036 73.3937C14.529 73.7142 13.7511 79.2104 13.7539 79.3966C13.7555 79.499 13.9729 79.7977 14.2783 80.1171L14.8001 80.6627L17.4901 78.1044C18.9696 76.6974 20.3701 75.3594 20.6024 75.1313L21.0248 74.7166L20.3302 74.0102L19.6355 73.3038L17.898 74.9661C16.9424 75.8804 16.148 76.6158 16.1326 76.6004C16.1172 76.5851 16.2844 75.2627 16.5041 73.6621C16.7237 72.0614 16.9038 70.6764 16.9042 70.5843C16.9047 70.4882 16.6724 70.1693 16.3592 69.8359L15.8133 69.2549L12.7182 72.2144ZM57.6373 70.0341C57.5506 70.1209 57.5699 70.9151 57.6647 71.1646C57.7797 71.4671 57.9721 71.5957 58.3146 71.5987C58.7945 71.603 58.9844 71.325 58.9907 70.609C58.9955 70.0651 58.9831 70.0217 58.8175 69.998C58.6496 69.9742 58.6378 70.0068 58.6153 70.556C58.5969 71.0062 58.5592 71.1596 58.45 71.2283C58.1764 71.4003 58.0295 71.1962 57.985 70.5823C57.9547 70.1651 57.913 70.0189 57.8193 70.0012C57.7504 69.9881 57.6685 70.0029 57.6373 70.0341ZM59.4511 70.1595C59.2723 70.6345 58.9554 71.5336 58.9554 71.5657C58.9554 71.5853 59.0421 71.6013 59.1481 71.6013C59.2729 71.6013 59.3557 71.5442 59.3832 71.4395C59.4155 71.3155 59.4935 71.2776 59.716 71.2776C59.9527 71.2776 60.0066 71.3077 60.0066 71.4395C60.0066 71.5582 60.0606 71.6013 60.2088 71.6013C60.32 71.6013 60.4086 71.574 60.4057 71.5406C60.4028 71.5073 60.2846 71.1522 60.1429 70.7517C59.9313 70.1534 59.8529 70.0188 59.7035 69.9976C59.5741 69.9792 59.5014 70.0259 59.4511 70.1595ZM59.8368 70.9338C59.8413 70.9894 59.7721 71.0349 59.6832 71.0349C59.4971 71.0349 59.4856 70.9722 59.6136 70.6558L59.7059 70.428L59.7673 70.6303C59.8012 70.7416 59.8324 70.8782 59.8368 70.9338ZM55.4781 71.7631C55.4781 72.653 55.4782 72.6532 55.6757 72.6532C55.8502 72.6532 55.8761 72.6132 55.8981 72.3093C55.9228 71.9662 55.9237 71.9653 56.2716 71.9403C56.5478 71.9203 56.6149 71.8868 56.5943 71.7784C56.5758 71.6808 56.4705 71.6346 56.2254 71.6169C55.9483 71.5968 55.8825 71.5618 55.8825 71.4349C55.8825 71.3001 55.9404 71.2776 56.2868 71.2776C56.6642 71.2776 56.6911 71.2641 56.6911 71.0754C56.6911 70.8776 56.6776 70.8731 56.0846 70.8731H55.4781V71.7631ZM80.5062 73.9828C80.9065 74.3282 81.2454 74.6414 81.2593 74.6789C81.2732 74.7164 80.9902 75.0755 80.6305 75.477C79.8918 76.3014 79.6711 76.4039 79.1254 76.1757C78.725 76.0084 78.4533 75.7582 78.3124 75.4271C78.0953 74.9174 78.1544 74.7581 78.8686 73.9271C79.4336 73.2699 79.5544 73.1666 79.6571 73.2529C79.7238 73.3089 80.1059 73.6374 80.5062 73.9828ZM71.9281 74.7574C71.5313 75.0691 71.1949 75.3593 71.1805 75.4022C71.1662 75.445 71.2991 75.8923 71.4759 76.3961L71.7974 77.3122L70.7448 78.135L69.6923 78.9579L69.2567 78.678C69.0171 78.5241 68.63 78.2757 68.3965 78.1259L67.9719 77.8537L67.1873 78.4698C66.5963 78.9339 66.4267 79.1078 66.4999 79.1745C66.5535 79.2232 68.2639 80.3432 70.301 81.6633L74.0047 84.0636L74.851 83.3994C75.3164 83.0339 75.6876 82.7098 75.6757 82.679C75.6639 82.6481 74.9997 80.7257 74.1997 78.4068C73.3997 76.0879 72.7236 74.1906 72.6974 74.1906C72.6711 74.1906 72.3249 74.4456 71.9281 74.7574ZM22.0855 77.1813C21.4008 77.4361 20.8199 77.8253 20.2696 78.3982C19.813 78.8735 17.144 82.5272 17.1502 82.6684C17.1524 82.7195 17.8705 83.247 18.522 83.6762L18.7342 83.816L20.0621 81.9365C20.7925 80.9028 21.5636 79.8822 21.7758 79.6686C22.6553 78.7833 23.6929 78.7295 24.4908 79.5278C24.9982 80.0354 25.0401 80.8512 24.6041 81.73C24.4644 82.0114 23.7667 83.0575 23.0536 84.0546C22.3404 85.0516 21.757 85.8947 21.757 85.928C21.757 85.9891 23.0753 86.9587 23.2493 87.0255C23.3803 87.0757 26.0066 83.3686 26.3732 82.6159C26.7626 81.8165 26.8836 81.2447 26.8319 80.4501C26.7843 79.7186 26.602 79.256 26.122 78.6483C25.7316 78.1542 24.8154 77.4945 24.1937 77.2599C23.5276 77.0084 22.6391 76.9754 22.0855 77.1813ZM73.0051 80.1929C73.3271 81.0462 73.5818 81.7524 73.5711 81.7622C73.5393 81.7915 70.8487 79.8995 70.8455 79.8457C70.8422 79.7872 72.2902 78.6409 72.3669 78.6412C72.3959 78.6414 72.683 79.3397 73.0051 80.1929ZM64.746 79.7585C64.306 80.0117 63.9469 80.2486 63.9479 80.285C63.9493 80.3364 67.7822 87.1224 68.0873 87.6136C68.1427 87.7028 68.3292 87.6273 68.9945 87.246C69.455 86.982 69.8319 86.7461 69.8319 86.7216C69.8319 86.6424 65.6294 79.2881 65.587 79.2932C65.5644 79.2959 65.186 79.5052 64.746 79.7585ZM28.9558 80.4021C28.9568 80.4348 29.0822 81.2421 29.2344 82.196C29.3866 83.1499 29.4929 83.9601 29.4705 83.9964C29.4481 84.0326 29.3649 84.0623 29.2857 84.0623C29.2064 84.0623 28.9181 84.174 28.6451 84.3105C27.2685 84.9989 26.7235 86.6897 27.4071 88.1514C27.6731 88.7203 28.1096 89.1795 28.6306 89.4386C29.4186 89.8306 32.3648 90.9577 32.4249 90.8902C32.513 90.7912 35.6118 83.0085 35.5746 82.9795C35.487 82.9108 33.7949 82.2664 33.7698 82.2922C33.7535 82.3089 33.5313 82.8506 33.276 83.4959C33.0207 84.1412 32.783 84.7016 32.7476 84.7412C32.7113 84.7821 32.4281 84.7102 32.0924 84.5748L31.5013 84.3363L31.2432 82.7718C31.1012 81.9113 30.9557 81.1814 30.9197 81.1499C30.8838 81.1183 30.5997 80.9923 30.2883 80.8697C29.977 80.7472 29.5494 80.5785 29.3382 80.4947C29.1269 80.4111 28.9549 80.3693 28.9558 80.4021ZM61.624 81.4503C61.157 81.6085 60.7656 81.7451 60.7544 81.754C60.7432 81.7628 61.0756 82.8152 61.4931 84.0926C62.2178 86.31 62.2425 86.4088 62.0391 86.2754C61.9219 86.1985 60.7373 85.4276 59.4066 84.5622L56.987 82.9888L56.2672 83.2189C55.8714 83.3455 55.5296 83.4781 55.5077 83.5134C55.4858 83.5489 56.0546 85.3526 56.7717 87.5219C57.4888 89.6912 58.0895 91.5096 58.1068 91.5627C58.1288 91.6305 58.3997 91.5729 59.0118 91.3703C59.4922 91.2113 59.9119 91.0574 59.9445 91.0282C59.9771 90.9992 59.6591 89.9388 59.2379 88.6719C58.8167 87.405 58.4716 86.3429 58.4711 86.3117C58.4706 86.2805 59.6741 87.0507 61.1455 88.0232L63.8209 89.7913L64.5419 89.5493C64.9385 89.4162 65.2614 89.2651 65.2595 89.2134C65.2517 88.9941 62.6244 81.2004 62.5523 81.1825C62.5087 81.1717 62.091 81.2922 61.624 81.4503ZM50.8147 84.1736C49.2949 84.3571 48.03 84.5288 48.0038 84.5551C47.9222 84.6372 48.1429 86.2473 48.2353 86.2435C48.2827 86.2416 49.1766 86.137 50.2218 86.0111C51.267 85.8852 52.1343 85.7928 52.1492 85.8056C52.1832 85.8351 52.4116 87.5631 52.3847 87.5868C52.3738 87.5964 51.637 87.6862 50.7475 87.7862C49.8579 87.8863 49.1083 87.9905 49.0815 88.0178C49.0362 88.0644 49.1652 89.4871 49.221 89.5554C49.235 89.5725 49.9749 89.5022 50.8652 89.3992C51.7554 89.296 52.5103 89.238 52.5425 89.2704C52.6486 89.3766 52.7893 90.8587 52.6937 90.8635C52.3649 90.8797 48.927 91.319 48.8989 91.3483C48.8519 91.3974 49.0362 92.9373 49.0962 92.9968C49.1221 93.0225 50.4411 92.8906 52.0276 92.7037C54.837 92.373 54.9121 92.3595 54.9121 92.1871C54.9121 91.9969 54.0567 84.6278 53.976 84.123C53.9365 83.8763 53.8948 83.8214 53.7526 83.8297C53.6565 83.8352 52.3344 83.99 50.8147 84.1736ZM39.3118 84.8452C39.1154 85.3714 38.9271 85.8339 38.8932 85.8729C38.8399 85.9343 38.1195 85.8638 37.2339 85.7104C36.9836 85.667 36.9822 85.6688 36.9268 86.0985C36.8962 86.3359 36.8509 86.6615 36.8261 86.8221L36.7811 87.114L37.5622 87.2174C38.2228 87.3049 38.336 87.3411 38.2955 87.4515C38.2692 87.5234 38.1547 87.8217 38.0411 88.1145L37.8345 88.647L37.094 88.5422C35.9332 88.378 36.0275 88.3363 35.9264 89.0575C35.8781 89.4017 35.8489 89.6937 35.8615 89.7062C35.874 89.7188 36.1991 89.7697 36.5838 89.8194C36.9964 89.8727 37.2816 89.9469 37.2792 90.0001C37.277 90.0498 37.0988 90.5274 36.8831 91.0615C36.6675 91.5955 36.5048 92.055 36.5215 92.0825C36.5382 92.11 36.7801 92.1583 37.0591 92.1898C37.338 92.2213 37.6616 92.2662 37.778 92.2894C37.9828 92.3302 38.0039 92.2958 38.4249 91.2334L38.8601 90.1352L39.3049 90.1844C39.5495 90.2114 39.7918 90.256 39.8433 90.2834C39.9079 90.3178 39.8144 90.6461 39.5407 91.3447C39.3229 91.901 39.1443 92.379 39.1439 92.4069C39.1432 92.4561 40.216 92.6393 40.504 92.6393C40.6102 92.6393 40.7495 92.3723 41.066 91.5625L41.4869 90.4858L42.1952 90.5862C43.3252 90.7466 43.2297 90.7898 43.3303 90.0716C43.3786 89.7273 43.4085 89.436 43.3966 89.4242C43.3847 89.4123 43.0779 89.3605 42.7147 89.3091C42.3473 89.2571 42.0544 89.1764 42.0544 89.1271C42.0544 89.0303 42.3465 88.2368 42.4609 88.0231C42.5256 87.902 42.6012 87.8995 43.2838 87.9961C43.6973 88.0545 44.0768 88.1036 44.1272 88.1052C44.2006 88.1075 44.3288 87.3596 44.3554 86.7732C44.3574 86.7289 44.0729 86.649 43.7234 86.5957C43.3737 86.5424 43.0773 86.4877 43.0647 86.4741C43.0521 86.4604 43.2199 86.0166 43.4376 85.4878C43.6553 84.959 43.8334 84.5013 43.8334 84.4707C43.8334 84.4169 42.3798 84.1947 42.334 84.2414C42.3151 84.2607 41.7981 85.5367 41.5672 86.1338C41.5054 86.2937 41.471 86.2993 40.9894 86.2269C40.7079 86.1847 40.4674 86.1406 40.4552 86.1291C40.443 86.1175 40.61 85.6569 40.8263 85.1055L41.2197 84.1028L40.9699 84.0465C40.8325 84.0156 40.4835 83.9674 40.1944 83.9393L39.6688 83.8882L39.3118 84.8452ZM31.2491 86.0964L32.0966 86.4313L31.9487 86.8044C31.8673 87.0096 31.6851 87.4688 31.5439 87.8249C31.4027 88.1809 31.2588 88.5014 31.2243 88.537C31.1502 88.6135 29.544 87.9905 29.3378 87.8053C28.9204 87.4302 29.009 86.5776 29.5183 86.0679C29.9217 85.6643 30.1657 85.6683 31.2491 86.0964ZM40.8697 87.7046C40.9075 87.7396 40.8347 88.0481 40.7079 88.3902L40.4775 89.0123L40.1944 88.9656C40.0388 88.94 39.8386 88.918 39.7497 88.9169C39.4168 88.9125 39.3786 88.815 39.5422 88.3875C39.9104 87.4251 39.8133 87.5231 40.3361 87.5855C40.5918 87.616 40.8319 87.6697 40.8697 87.7046Z" fill="white"/>
</svg>
