<?xml version="1.0" encoding="utf-8"?>
<!-- Generator: Adobe Illustrator 28.0.0, SVG Export Plug-In . SVG Version: 6.00 Build 0)  -->
<svg version="1.1" id="Layer_1" xmlns:xodm="http://www.corel.com/coreldraw/odm/2003"
	 xmlns="http://www.w3.org/2000/svg" xmlns:xlink="http://www.w3.org/1999/xlink" x="0px" y="0px" viewBox="0 0 104.5 104.5"
	 style="enable-background:new 0 0 104.5 104.5;" xml:space="preserve">
<style type="text/css">
	.st0{fill-rule:evenodd;clip-rule:evenodd;fill:#23529E;}
</style>
<g id="Layer_x0020_1">
	<g id="_105553240241920">
		<path class="st0" d="M40.5,99.3l2,0.3l0.6-1.5l-1.8-0.2l0.2-1.6l2.1,0.3l0.9-2.3l1.7,0.2l-0.9,2.3l1.2,0.2l0.9-2.3l1.7,0.2
			l-0.9,2.3l1.5,0.2L49.7,99l-1.9-0.3l-0.6,1.5l1.6,0.2l-0.2,1.5l-2-0.3l-1,2.4l-1.7-0.2l1-2.4l-1.2-0.2l-1,2.4l-1.7-0.2l1-2.4
			l-1.7-0.2L40.5,99.3L40.5,99.3z M44.8,98.3L44.8,98.3l-0.6,1.5l1.2,0.2l0.6-1.5L44.8,98.3L44.8,98.3z M40,93.2L40,93.2l-3.6,9
			l-4-1.6c-0.4-0.2-0.8-0.4-1.1-0.7c-0.3-0.3-0.5-0.7-0.7-1.1c-0.1-0.4-0.2-0.8-0.2-1.2s0.1-0.8,0.2-1.2c0.1-0.4,0.3-0.7,0.6-1
			c0.3-0.3,0.5-0.5,0.9-0.7c0.3-0.2,0.7-0.3,1-0.3l-0.6-4.1l2.3,0.9l0.6,3.6l1.4,0.6l1.2-2.9L40,93.2L40,93.2z M36.1,97.1L36.1,97.1
			l-1.9-0.8c-0.2-0.1-0.3-0.1-0.5,0s-0.3,0.2-0.5,0.3s-0.3,0.4-0.4,0.6s-0.1,0.5-0.1,0.7c0,0.2,0.1,0.4,0.2,0.6
			c0.1,0.2,0.2,0.3,0.4,0.3l1.8,0.7L36.1,97.1L36.1,97.1z M28.4,87.4L28.4,87.4c0.6,0.4,1.1,0.9,1.4,1.5c0.3,0.5,0.4,1.1,0.5,1.6
			c0,0.6-0.1,1.1-0.3,1.7c-0.2,0.6-0.5,1.1-0.9,1.6l-2.9,4l-1.8-1.3l2.9-4c0.2-0.3,0.4-0.6,0.5-0.9c0.1-0.3,0.2-0.6,0.2-0.9
			c0-0.3,0-0.6-0.2-0.9c-0.1-0.3-0.3-0.5-0.6-0.7c-0.3-0.2-0.6-0.4-0.9-0.4c-0.3,0-0.6,0-0.9,0.2c-0.3,0.1-0.5,0.3-0.8,0.5
			c-0.3,0.2-0.5,0.5-0.7,0.8l-2.9,4l-1.8-1.3l2.9-4c0.4-0.5,0.8-1,1.3-1.4c0.5-0.4,1-0.6,1.5-0.8c0.5-0.2,1.1-0.2,1.7-0.1
			C27.2,86.7,27.7,87,28.4,87.4L28.4,87.4z M18.1,86.1L18.1,86.1l1-7l-1.3-1.3l-7,6.7l1.5,1.6l4.1-3.9l-1,7.2l1.2,1.3l7-6.7
			l-1.5-1.6L18.1,86.1L18.1,86.1z M15.3,73.5L15.3,73.5l-8.6,4.4l-3-5.8l1.7-0.9l2,3.9l1.9-0.9l-1.6-3.2l1.6-0.8l1.6,3.2l3.4-1.7
			L15.3,73.5L15.3,73.5z M11,62.7L11,62.7c0.2,0.7,0.2,1.4,0.1,2c-0.1,0.6-0.3,1.2-0.7,1.8s-0.8,1-1.3,1.4c-0.5,0.4-1.1,0.6-1.7,0.8
			c-0.6,0.2-1.2,0.2-1.9,0.1c-0.6-0.1-1.2-0.3-1.8-0.6c-0.6-0.3-1-0.7-1.5-1.2c-0.4-0.5-0.7-1.1-0.9-1.8c-0.2-0.7-0.2-1.4-0.1-2
			c0.1-0.6,0.3-1.2,0.7-1.8c0.3-0.5,0.8-1,1.3-1.4c0.5-0.4,1-0.6,1.6-0.8c0.6-0.2,1.2-0.2,1.9-0.1s1.2,0.3,1.8,0.6
			c0.6,0.3,1,0.7,1.5,1.2C10.6,61.4,10.9,62,11,62.7L11,62.7z M7,66.4L7,66.4c0.4-0.1,0.7-0.2,1-0.4c0.3-0.2,0.6-0.4,0.8-0.7
			s0.3-0.6,0.4-0.9c0.1-0.3,0.1-0.7-0.1-1.1c-0.1-0.4-0.3-0.7-0.5-1c-0.2-0.3-0.5-0.5-0.9-0.6c-0.3-0.1-0.7-0.2-1-0.2
			c-0.4,0-0.7,0-1.1,0.1c-0.4,0.1-0.7,0.2-1,0.4c-0.3,0.2-0.6,0.4-0.8,0.7c-0.2,0.3-0.3,0.6-0.4,0.9c-0.1,0.3,0,0.7,0.1,1.1
			c0.1,0.4,0.3,0.7,0.5,1c0.2,0.3,0.5,0.5,0.8,0.6c0.3,0.1,0.7,0.2,1,0.2C6.3,66.6,6.6,66.5,7,66.4L7,66.4z M9.7,56.9L9.7,56.9
			L0.1,57L0,52.7c0-0.5,0.1-0.9,0.3-1.3c0.2-0.4,0.4-0.7,0.7-1c0.3-0.3,0.7-0.5,1-0.7s0.8-0.3,1.2-0.3c0.4,0,0.8,0.1,1.1,0.2
			s0.7,0.3,1,0.5C5.6,50.4,5.9,50.7,6,51l3.6-2.2l0,2.5l-3.1,1.9l0,1.5l3.1,0L9.7,56.9L9.7,56.9z M4.6,54.7L4.6,54.7l0-2
			c0-0.2-0.1-0.3-0.2-0.5c-0.1-0.1-0.3-0.3-0.5-0.3s-0.4-0.1-0.7-0.1c-0.3,0-0.5,0.1-0.7,0.2c-0.2,0.1-0.3,0.2-0.4,0.4
			C2,52.5,2,52.6,2,52.8l0,2L4.6,54.7L4.6,54.7z M11.2,41.2L11.2,41.2C11,42,10.7,42.6,10.3,43c-0.4,0.5-0.9,0.8-1.4,1
			c-0.5,0.2-1.1,0.3-1.7,0.3c-0.6,0-1.2-0.1-1.8-0.3l-4.7-1.4l0.6-2.1L6,41.9C6.3,42,6.7,42,7,42c0.3,0,0.7,0,1-0.1
			c0.3-0.1,0.6-0.2,0.8-0.4C9,41.3,9.2,41,9.3,40.7c0.1-0.4,0.1-0.7,0-1c-0.1-0.3-0.2-0.6-0.4-0.8c-0.2-0.2-0.5-0.4-0.8-0.6
			s-0.6-0.3-1-0.4l-4.7-1.4L3,34.4l4.7,1.4c0.6,0.2,1.2,0.4,1.7,0.8c0.5,0.3,0.9,0.7,1.3,1.2c0.3,0.5,0.5,1,0.6,1.6
			C11.4,39.8,11.4,40.5,11.2,41.2L11.2,41.2z M12.9,35.6L12.9,35.6l1-2l-2.5-1.3L10.9,31l4.7-0.6l1.2-2.3l-6.5,1l-2.2-5.2L7,26.1
			L9,31.1l-3.7-1.9l-1,2L12.9,35.6L12.9,35.6z M17.2,27.6L17.2,27.6l-7.3-6.3l2.9-3.3c0.3-0.3,0.6-0.6,1-0.8
			c0.4-0.2,0.8-0.3,1.2-0.3c0.4,0,0.8,0.1,1.2,0.2c0.4,0.1,0.7,0.3,1.1,0.6c0.3,0.3,0.5,0.6,0.7,0.9c0.2,0.3,0.3,0.7,0.4,1
			c0.1,0.4,0.1,0.7,0,1.1l4.1,0.8l-1.6,1.9l-3.6-0.6l-1,1.1l2.4,2L17.2,27.6L17.2,27.6z M14.9,22.6L14.9,22.6l1.3-1.5
			c0.1-0.1,0.2-0.3,0.2-0.5c0-0.2,0-0.4-0.1-0.6c-0.1-0.2-0.2-0.4-0.4-0.6c-0.2-0.2-0.4-0.3-0.6-0.3c-0.2,0-0.4-0.1-0.6,0
			c-0.2,0-0.3,0.1-0.4,0.3l-1.3,1.5L14.9,22.6L14.9,22.6z M19.2,11.8L19.2,11.8l3.3,9.7l1.8-1.4l-0.8-2.2l2.4-1.9l1.9,1.2l1.8-1.4
			l-8.6-5.6L19.2,11.8L19.2,11.8z M24.7,15L24.7,15l-1.8,1.4l-1.4-3.6C21.5,12.8,24.7,15,24.7,15z M30.4,15.6L30.4,15.6l-4.8-8.4
			l1.9-1.1l4.8,8.4C32.4,14.5,30.4,15.6,30.4,15.6z M34,7.7L34,7.7l6.1,3.6l1.7-0.7l-3.5-9l-2.1,0.8l2.1,5.3L32,4l-1.6,0.6l3.5,9
			l2.1-0.8L34,7.7L34,7.7z M50,7.6L50,7.6l0.2,1.9l-6.7,0.8l-1.1-9.6L49,0l0.2,1.9l-4.4,0.5L45,4.3l3.8-0.4L49,5.7l-3.8,0.4l0.2,2
			L50,7.6L50,7.6z M63.9,5.2L63.9,5.2l-2-0.3l-0.6,1.5l1.8,0.2l-0.2,1.6l-2.1-0.3l-0.9,2.3L58.1,10L59,7.7l-1.2-0.2l-0.9,2.3
			l-1.7-0.2l0.9-2.3l-1.5-0.2l0.2-1.6l1.9,0.3l0.6-1.5L55.6,4l0.2-1.5l2,0.3l1-2.4l1.7,0.2l-1,2.4l1.2,0.2l1-2.5L63.4,1l-1,2.4
			l1.7,0.2L63.9,5.2L63.9,5.2z M59.6,6.1L59.6,6.1l0.6-1.5l-1.2-0.2L58.4,6L59.6,6.1z M64.4,11.2L64.4,11.2l3.6-9l4,1.6
			c0.4,0.2,0.8,0.4,1.1,0.7c0.3,0.3,0.5,0.7,0.7,1.1C73.9,6,74,6.4,74,6.9s-0.1,0.8-0.2,1.2c-0.1,0.4-0.3,0.7-0.6,1
			c-0.3,0.3-0.5,0.5-0.9,0.7c-0.3,0.2-0.7,0.3-1,0.3l0.6,4.1l-2.3-0.9L69,9.7l-1.4-0.6L66.5,12L64.4,11.2L64.4,11.2z M68.4,7.3
			L68.4,7.3l1.9,0.8c0.2,0.1,0.3,0.1,0.5,0c0.2-0.1,0.3-0.2,0.5-0.3c0.2-0.2,0.3-0.4,0.4-0.6s0.1-0.5,0.1-0.7c0-0.2-0.1-0.4-0.2-0.6
			c-0.1-0.2-0.2-0.3-0.4-0.3l-1.8-0.7L68.4,7.3z M76.1,17L76.1,17c-0.7-0.4-1.1-0.9-1.5-1.4c-0.3-0.5-0.5-1-0.5-1.6
			c0-0.6,0-1.1,0.2-1.7c0.2-0.6,0.4-1.1,0.8-1.7l2.7-4.2l1.9,1.2l-2.7,4.2c-0.2,0.3-0.4,0.6-0.5,0.9c-0.1,0.3-0.2,0.6-0.2,1
			s0.1,0.6,0.2,0.9c0.1,0.3,0.4,0.5,0.7,0.7c0.3,0.2,0.6,0.3,1,0.3c0.3,0,0.6-0.1,0.9-0.2c0.3-0.1,0.5-0.3,0.8-0.6
			c0.2-0.2,0.5-0.5,0.7-0.8l2.7-4.2l1.9,1.2l-2.7,4.2c-0.4,0.6-0.8,1-1.2,1.4c-0.5,0.4-0.9,0.7-1.5,0.9c-0.5,0.2-1.1,0.2-1.7,0.1
			C77.3,17.7,76.7,17.4,76.1,17L76.1,17z M86.4,18.3L86.4,18.3l-1,7l1.3,1.3l7-6.7l-1.5-1.6L88,22.2l1-7.2l-1.2-1.3l-7,6.7l1.5,1.6
			L86.4,18.3L86.4,18.3z M89.2,30.8L89.2,30.8l8.6-4.4l3,5.9L99,33.2l-2-3.9l-1.9,0.9l1.6,3.2l-1.6,0.8l-1.6-3.2l-3.4,1.7L89.2,30.8
			L89.2,30.8z M93.4,41.7L93.4,41.7c-0.2-0.7-0.2-1.4-0.1-2c0.1-0.6,0.3-1.2,0.7-1.8c0.3-0.5,0.8-1,1.3-1.4c0.5-0.4,1.1-0.6,1.7-0.8
			c0.6-0.2,1.2-0.2,1.9-0.1c0.6,0.1,1.2,0.3,1.8,0.6c0.6,0.3,1,0.7,1.4,1.2c0.4,0.5,0.7,1.1,0.9,1.8c0.2,0.7,0.2,1.4,0.1,2
			c-0.1,0.6-0.3,1.2-0.7,1.8c-0.3,0.5-0.8,1-1.3,1.4s-1.1,0.6-1.6,0.8c-0.6,0.2-1.2,0.2-1.9,0.1c-0.6-0.1-1.2-0.3-1.8-0.6
			c-0.6-0.3-1-0.7-1.5-1.2C93.9,42.9,93.6,42.3,93.4,41.7L93.4,41.7z M97.5,37.9L97.5,37.9c-0.4,0.1-0.7,0.2-1,0.4
			c-0.3,0.2-0.6,0.4-0.8,0.7s-0.3,0.6-0.4,0.9c-0.1,0.3-0.1,0.7,0.1,1.1c0.1,0.4,0.3,0.7,0.5,1c0.2,0.3,0.5,0.5,0.9,0.6
			c0.3,0.1,0.7,0.2,1,0.2c0.4,0,0.7,0,1.1-0.1c0.4-0.1,0.7-0.2,1-0.4c0.3-0.2,0.6-0.4,0.8-0.7c0.2-0.3,0.3-0.6,0.4-0.9
			c0.1-0.3,0-0.7-0.1-1.1c-0.1-0.4-0.3-0.7-0.5-1c-0.2-0.3-0.5-0.5-0.8-0.6c-0.3-0.1-0.7-0.2-1-0.2C98.2,37.8,97.8,37.8,97.5,37.9
			L97.5,37.9z M94.8,47.5L94.8,47.5l9.7-0.2l0.1,4.4c0,0.5-0.1,0.9-0.3,1.3c-0.2,0.4-0.4,0.7-0.7,1c-0.3,0.3-0.7,0.5-1,0.7
			c-0.4,0.2-0.8,0.3-1.2,0.3c-0.4,0-0.8-0.1-1.1-0.2c-0.4-0.1-0.7-0.3-1-0.5c-0.3-0.2-0.5-0.5-0.7-0.8l-3.6,2.2l0-2.5l3.1-1.9l0-1.5
			l-3.1,0L94.8,47.5L94.8,47.5z M99.9,49.6L99.9,49.6l0,2c0,0.2,0.1,0.3,0.2,0.5c0.1,0.1,0.3,0.3,0.5,0.3c0.2,0.1,0.4,0.1,0.7,0.1
			c0.3,0,0.5-0.1,0.7-0.2c0.2-0.1,0.3-0.2,0.4-0.4c0.1-0.2,0.2-0.3,0.2-0.5l0-2L99.9,49.6L99.9,49.6z M93.2,63.6L93.2,63.6
			c0.2-0.7,0.5-1.3,0.9-1.8c0.4-0.5,0.9-0.8,1.4-1c0.5-0.2,1.1-0.3,1.7-0.3c0.6,0,1.2,0.1,1.8,0.3l4.7,1.4l-0.6,2.1L98.4,63
			c-0.3-0.1-0.7-0.2-1-0.2c-0.3,0-0.7,0-1,0.1c-0.3,0.1-0.6,0.2-0.8,0.4c-0.2,0.2-0.4,0.5-0.5,0.9c-0.1,0.4-0.1,0.7,0,1
			c0.1,0.3,0.2,0.6,0.4,0.8c0.2,0.2,0.5,0.4,0.8,0.6c0.3,0.2,0.6,0.3,1,0.4l4.7,1.4l-0.6,2.1l-4.7-1.4c-0.6-0.2-1.2-0.4-1.7-0.8
			c-0.5-0.3-0.9-0.7-1.3-1.2c-0.3-0.5-0.5-1-0.6-1.6C93,65,93,64.3,93.2,63.6z M91.4,69.2L91.4,69.2l-1,2l2.5,1.3l0.5,1.4l-4.7,0.6
			l-1.2,2.3l6.5-1l2.2,5.2l1.1-2.2l-2.1-5.1l3.7,1.9l1-2L91.4,69.2L91.4,69.2z M87,77.1L87,77.1l7.3,6.3l-2.9,3.3
			c-0.3,0.3-0.6,0.6-1,0.8c-0.4,0.2-0.8,0.3-1.2,0.3c-0.4,0-0.8-0.1-1.2-0.2c-0.4-0.1-0.7-0.3-1.1-0.6c-0.3-0.3-0.5-0.6-0.7-0.9
			c-0.2-0.3-0.3-0.7-0.4-1c-0.1-0.4-0.1-0.7,0-1.1l-4.1-0.8l1.6-1.9l3.6,0.6l1-1.1l-2.4-2L87,77.1L87,77.1z M89.4,82.2L89.4,82.2
			L88,83.7c-0.1,0.1-0.2,0.3-0.2,0.5c0,0.2,0,0.4,0.1,0.6c0.1,0.2,0.2,0.4,0.4,0.6c0.2,0.2,0.4,0.3,0.6,0.3c0.2,0,0.4,0.1,0.6,0
			c0.2,0,0.3-0.1,0.4-0.3l1.3-1.5L89.4,82.2L89.4,82.2z M85,92.9L85,92.9l-3.3-9.7l-1.8,1.4l0.8,2.2l-2.4,1.9l-1.9-1.2l-1.8,1.4
			l8.6,5.6L85,92.9L85,92.9z M79.5,89.7L79.5,89.7l1.8-1.4l1.4,3.6L79.5,89.7z M73.7,89L73.7,89l4.8,8.4l-1.9,1.1l-4.8-8.4L73.7,89z
			 M70,97.1L70,97.1L64,93.2l-1.7,0.6l3,9.2l2.1-0.7l-1.8-5.4l6,4l1.7-0.6l-3-9.2l-2.1,0.7C68.2,91.8,70,97.1,70,97.1z M54.1,96.9
			L54.1,96.9l-0.2-1.9l6.7-0.8l1.1,9.6l-6.6,0.8l-0.2-1.9l4.4-0.5l-0.2-1.9l-3.8,0.4l-0.2-1.8l3.8-0.4l-0.2-2L54.1,96.9L54.1,96.9z"
			/>
		<g>
			<path class="st0" d="M32.6,73.3l-0.4-44.2h2c1.3,0,2.5,0.4,3.6,1c2,1.3,3.5,3.7,4.3,6.6c0.8,2.7,1.2,5.8,1.2,8.9
				c0,4.1-0.7,8.2-2,10.8c1,2.8,2.1,5.1,3.4,7.1c0.4-5.8,1.2-12.4,2-18.9c1.1-9.6,2.3-19.1,2.3-25.9h4c0,7-1.1,16.6-2.3,26.3
				c-0.9,7.5-1.8,15-2.1,21.1c0,0.7-0.1,1.4-0.1,2.1c1.4,1.4,3,2.6,4.6,3.4L51,75.2c-0.9-0.5-1.9-1.1-2.7-1.7
				c0.1,1.5,0.2,2.9,0.5,4.2c0.5,2.3,1.6,4.2,3.5,5.6c4.4-3.5,4.3-11.4,4.1-18.2c0-1.3,0-2.6,0-3.2V24.6h4v30c3.3,2.6,5.8,6,7.7,9.3
				l0.3-34.7l4,0L72,73.4l-4,0l0-1c-1.7-3.6-4.1-8.6-7.6-12.4v1.9c0,1.4,0,2.3,0,3.1c0.1,8.3,0.3,18.2-7.1,22.4l-1,0.6l-1-0.6
				c-3.6-2.2-5.5-5.1-6.3-8.8c-0.6-2.5-0.7-5.4-0.6-8.7c-0.4-0.5-0.8-0.9-1.2-1.4c-2.3-3-4.3-6.8-5.9-11.5L36.9,56l0.5-0.8
				c1.2-1.9,1.9-5.6,1.9-9.6c0-2.7-0.3-5.4-1-7.7c-0.5-1.7-1.2-3.1-2.1-3.9l0.4,39.4L32.6,73.3L32.6,73.3z"/>
		</g>
	</g>
</g>
</svg>
