<svg width="39" height="67" viewBox="0 0 39 67" fill="none" xmlns="http://www.w3.org/2000/svg">
<path fill-rule="evenodd" clip-rule="evenodd" d="M0.382773 52.2488L0 9.95215H1.91388C3.15789 9.95215 4.30622 10.3349 5.35885 10.9091C7.27273 12.1531 8.70813 14.4498 9.47368 17.2249C10.2392 19.8086 10.622 22.7751 10.622 25.7416C10.622 29.6651 9.95215 33.5885 8.70813 36.0766C9.66507 38.756 10.7177 40.9569 11.9617 42.8708C12.3445 37.3206 13.11 31.0048 13.8756 24.7847C14.9282 15.5981 16.0766 6.50718 16.0766 0H19.9043C19.9043 6.69856 18.8517 15.8852 17.7033 25.1675C16.8421 32.3445 15.9809 39.5215 15.6938 45.3589C15.6938 46.0287 15.5981 46.6986 15.5981 47.3684C16.9378 48.7081 18.4689 49.8565 20 50.622L17.9904 54.067C17.1292 53.5885 16.1722 53.0144 15.4067 52.4402C15.5024 53.8756 15.5981 55.2153 15.8852 56.4593C16.3636 58.6603 17.4163 60.4785 19.2344 61.8182C23.445 58.4689 23.3493 50.9091 23.1579 44.4019C23.1579 43.1579 23.1579 41.9139 23.1579 41.3397V5.64593H26.9856V34.3541C30.1435 36.8421 32.5359 40.0957 34.3541 43.2536L34.6411 10.0478H38.4689L38.0861 52.3445H34.2584V51.3876C32.6316 47.9426 30.3349 43.1579 26.9856 39.5215V41.3397C26.9856 42.6794 26.9856 43.5407 26.9856 44.3062C27.0813 52.2488 27.2727 61.7225 20.1914 65.7416L19.2344 66.3158L18.2775 65.7416C14.8325 63.6364 13.0144 60.8612 12.2488 57.3206C11.6746 54.9282 11.5789 52.1531 11.6746 48.9952C11.2919 48.5167 10.9091 48.134 10.5263 47.6555C8.32536 44.7847 6.41148 41.1483 4.88038 36.6507L4.49761 35.6938L4.97608 34.9282C6.1244 33.11 6.79426 29.5694 6.79426 25.7416C6.79426 23.1579 6.50718 20.5742 5.83732 18.3732C5.35885 16.7464 4.689 15.4067 3.82775 14.6411L4.21052 52.3445L0.382773 52.2488Z" fill="white"/>
</svg>
