<svg width="24" height="25" viewBox="0 0 24 25" fill="none" xmlns="http://www.w3.org/2000/svg">
<path d="M12 0.375C8.74 0.375 8.333 0.39 7.053 0.447C5.775 0.507 4.905 0.708 4.14 1.005C3.351 1.311 2.681 1.722 2.014 2.389C1.347 3.056 0.935 3.725 0.63 4.515C0.333 5.28 0.131 6.15 0.072 7.428C0.012 8.708 0 9.115 0 12.375C0 15.635 0.015 16.042 0.072 17.322C0.132 18.599 0.333 19.47 0.63 20.235C0.936 21.023 1.347 21.694 2.014 22.361C2.681 23.027 3.35 23.44 4.14 23.745C4.906 24.041 5.776 24.244 7.053 24.303C8.333 24.363 8.74 24.375 12 24.375C15.26 24.375 15.667 24.36 16.947 24.303C18.224 24.243 19.095 24.041 19.86 23.745C20.648 23.439 21.319 23.027 21.986 22.361C22.652 21.694 23.065 21.026 23.37 20.235C23.666 19.47 23.869 18.599 23.928 17.322C23.988 16.042 24 15.635 24 12.375C24 9.115 23.985 8.708 23.928 7.428C23.868 6.151 23.666 5.279 23.37 4.515C23.064 3.726 22.652 3.056 21.986 2.389C21.319 1.722 20.651 1.31 19.86 1.005C19.095 0.708 18.224 0.506 16.947 0.447C15.667 0.387 15.26 0.375 12 0.375ZM12 2.535C15.203 2.535 15.585 2.551 16.85 2.606C18.02 2.661 18.655 2.855 19.077 3.021C19.639 3.238 20.037 3.498 20.459 3.917C20.878 4.337 21.138 4.736 21.355 5.298C21.519 5.72 21.715 6.355 21.768 7.525C21.825 8.791 21.838 9.171 21.838 12.375C21.838 15.579 21.823 15.96 21.764 17.225C21.703 18.395 21.508 19.03 21.343 19.452C21.119 20.014 20.864 20.412 20.444 20.834C20.025 21.253 19.62 21.513 19.064 21.73C18.644 21.894 17.999 22.09 16.829 22.143C15.555 22.2 15.18 22.213 11.97 22.213C8.759 22.213 8.384 22.198 7.111 22.139C5.94 22.078 5.295 21.883 4.875 21.718C4.306 21.494 3.915 21.239 3.496 20.819C3.075 20.4 2.806 19.995 2.596 19.439C2.431 19.019 2.237 18.374 2.176 17.204C2.131 15.944 2.115 15.555 2.115 12.36C2.115 9.164 2.131 8.774 2.176 7.499C2.237 6.329 2.431 5.685 2.596 5.265C2.806 4.695 3.075 4.305 3.496 3.884C3.915 3.465 4.306 3.195 4.875 2.986C5.295 2.82 5.926 2.625 7.096 2.565C8.371 2.52 8.746 2.505 11.955 2.505L12 2.535ZM12 6.213C8.595 6.213 5.838 8.973 5.838 12.375C5.838 15.78 8.598 18.537 12 18.537C15.405 18.537 18.162 15.777 18.162 12.375C18.162 8.97 15.402 6.213 12 6.213ZM12 16.375C9.79 16.375 8 14.585 8 12.375C8 10.165 9.79 8.375 12 8.375C14.21 8.375 16 10.165 16 12.375C16 14.585 14.21 16.375 12 16.375ZM19.846 5.97C19.846 6.765 19.2 7.41 18.406 7.41C17.611 7.41 16.966 6.764 16.966 5.97C16.966 5.176 17.612 4.531 18.406 4.531C19.199 4.53 19.846 5.176 19.846 5.97Z" fill="#FFD500"/>
</svg>
