<svg width="24" height="25" viewBox="0 0 24 25" fill="none" xmlns="http://www.w3.org/2000/svg">
<path d="M20.447 20.827H16.893V15.258C16.893 13.93 16.866 12.221 15.041 12.221C13.188 12.221 12.905 13.666 12.905 15.16V20.827H9.351V9.375H12.765V10.936H12.811C13.288 10.036 14.448 9.086 16.181 9.086C19.782 9.086 20.448 11.456 20.448 14.541V20.827H20.447ZM5.337 7.808C4.193 7.808 3.274 6.882 3.274 5.743C3.274 4.605 4.194 3.68 5.337 3.68C6.477 3.68 7.401 4.605 7.401 5.743C7.401 6.882 6.476 7.808 5.337 7.808ZM7.119 20.827H3.555V9.375H7.119V20.827ZM22.225 0.375H1.771C0.792 0.375 0 1.149 0 2.104V22.646C0 23.602 0.792 24.375 1.771 24.375H22.222C23.2 24.375 24 23.602 24 22.646V2.104C24 1.149 23.2 0.375 22.222 0.375H22.225Z" fill="#FFD500"/>
</svg>
